<svg id="lysiane-brand" width="64" height="64" viewBox="0 0 64 64" fill="none" xmlns="http://www.w3.org/2000/svg">
	<g clip-path="url(#lysiane-brand-mask)">
		<path d="M31.5712 21.1546C29.1721 18.2303 25.9137 16.0342 22.1181 15.2464C13.3096 13.3964 3.70143 19.5075 1.49333 28.6263C-0.15379 35.4177 2.55561 42.8894 8.18924 46.8759C15.6371 52.1515 26.8685 50.4089 32.5141 43.5101L20.6739 30.6434L31.5592 21.1546H31.5712Z" fill="#2E2EFA" />
		<path d="M31.5713 21.1546C36.0591 26.6212 37.5869 34.6658 34.1971 41.0156C33.7197 41.9108 33.1587 42.7463 32.5261 43.5101L42.3134 54.2164L64.0005 34.7136L42.0747 12L31.5713 21.1546Z" fill="#FF3939" />
		<path d="M31.5709 21.1549L20.6855 30.6438L32.5257 43.5104C33.1583 42.7465 33.7193 41.911 34.1967 41.0158C37.5984 34.6541 36.0587 26.6214 31.5709 21.1549Z" fill="#FFF06F" />
	</g>
	<defs>
		<clipPath id="lysiane-brand-mask">
			<rect width="64" height="64" fill="white" />
		</clipPath>
	</defs>
</svg>
