<svg width="1447" height="1085" fill="none" xmlns="http://www.w3.org/2000/svg">
	<path d="M893.6 12a1 1 0 1 0 0-2 1 1 0 0 0 0 2Zm35.4.5a1 1 0 1 0 0-2 1 1 0 0 0 0 2Zm35.4 0a1 1 0 1 0 0-2 1 1 0 0 0 0 2Zm35.4 0a1 1 0 1 0 0-2 1 1 0 0 0 0 2Zm35.3 0a1 1 0 1 0 0-2 1 1 0 0 0 0 2ZM893.6 47a1 1 0 1 0 0-2 1 1 0 0 0 0 2Zm35.4.5a1 1 0 1 0 0-2 1 1 0 0 0 0 2Zm35.4 0a1 1 0 1 0 0-2 1 1 0 0 0 0 2Zm35.4 0a1 1 0 1 0 0-2 1 1 0 0 0 0 2Zm35.3 0a1 1 0 1 0 0-2 1 1 0 0 0 0 2ZM893.6 82a1 1 0 1 0 0-2 1 1 0 0 0 0 2Zm35.4.5a1 1 0 1 0 0-2 1 1 0 0 0 0 2Zm35.4 0a1 1 0 1 0 0-2 1 1 0 0 0 0 2Zm35.4 0a1 1 0 1 0 0-2 1 1 0 0 0 0 2Zm35.3 0a1 1 0 1 0 0-2 1 1 0 0 0 0 2ZM893.6 117a1 1 0 1 0 0-2 1 1 0 0 0 0 2Zm35.4.5a1 1 0 1 0 0-2 1 1 0 0 0 0 2Zm35.4 0a1 1 0 1 0 0-2 1 1 0 0 0 0 2Zm35.4 0a1 1 0 1 0 0-2 1 1 0 0 0 0 2Zm35.3 0a1 1 0 1 0 0-2 1 1 0 0 0 0 2ZM893.6 292a1 1 0 1 0 0-2 1 1 0 0 0 0 2Zm35.4.5a1 1 0 1 0 0-2 1 1 0 0 0 0 2Zm35.4 0a1 1 0 1 0 0-2 1 1 0 0 0 0 2Zm35.4 0a1 1 0 1 0 0-2 1 1 0 0 0 0 2Zm35.3 0a1 1 0 1 0 0-2 1 1 0 0 0 0 2ZM893.6 327a1 1 0 1 0 0-2 1 1 0 0 0 0 2Zm35.4.5a1 1 0 1 0 0-2 1 1 0 0 0 0 2Zm35.4 0a1 1 0 1 0 0-2 1 1 0 0 0 0 2Zm35.4 0a1 1 0 1 0 0-2 1 1 0 0 0 0 2Zm35.3 0a1 1 0 1 0 0-2 1 1 0 0 0 0 2ZM893.6 362a1 1 0 1 0 0-2 1 1 0 0 0 0 2Zm35.4.5a1 1 0 1 0 0-2 1 1 0 0 0 0 2Zm35.4 0a1 1 0 1 0 0-2 1 1 0 0 0 0 2Zm35.4 0a1 1 0 1 0 0-2 1 1 0 0 0 0 2Zm35.3 0a1 1 0 1 0 0-2 1 1 0 0 0 0 2ZM893.6 397a1 1 0 1 0 0-2 1 1 0 0 0 0 2Zm35.4.5a1 1 0 1 0 0-2 1 1 0 0 0 0 2Zm35.4 0a1 1 0 1 0 0-2 1 1 0 0 0 0 2Zm35.4 0a1 1 0 1 0 0-2 1 1 0 0 0 0 2Zm35.3 0a1 1 0 1 0 0-2 1 1 0 0 0 0 2ZM893.6 152a1 1 0 1 0 0-2 1 1 0 0 0 0 2Zm35.4.5a1 1 0 1 0 0-2 1 1 0 0 0 0 2Zm35.4 0a1 1 0 1 0 0-2 1 1 0 0 0 0 2Zm35.4 0a1 1 0 1 0 0-2 1 1 0 0 0 0 2Zm35.3 0a1 1 0 1 0 0-2 1 1 0 0 0 0 2ZM893.6 187a1 1 0 1 0 0-2 1 1 0 0 0 0 2Zm35.4.5a1 1 0 1 0 0-2 1 1 0 0 0 0 2Zm35.4 0a1 1 0 1 0 0-2 1 1 0 0 0 0 2Zm35.4 0a1 1 0 1 0 0-2 1 1 0 0 0 0 2Zm35.3 0a1 1 0 1 0 0-2 1 1 0 0 0 0 2ZM893.6 222a1 1 0 1 0 0-2 1 1 0 0 0 0 2Zm35.4.5a1 1 0 1 0 0-2 1 1 0 0 0 0 2Zm35.4 0a1 1 0 1 0 0-2 1 1 0 0 0 0 2Zm35.4 0a1 1 0 1 0 0-2 1 1 0 0 0 0 2Zm35.3 0a1 1 0 1 0 0-2 1 1 0 0 0 0 2ZM893.6 257a1 1 0 1 0 0-2 1 1 0 0 0 0 2Zm35.4.5a1 1 0 1 0 0-2 1 1 0 0 0 0 2Zm35.4 0a1 1 0 1 0 0-2 1 1 0 0 0 0 2Zm35.4 0a1 1 0 1 0 0-2 1 1 0 0 0 0 2Zm35.3 0a1 1 0 1 0 0-2 1 1 0 0 0 0 2Zm35.9-245a1 1 0 1 0 0-2 1 1 0 0 0 0 2Zm35.4 0a1 1 0 1 0 0-2 1 1 0 0 0 0 2Zm35.4 0a1 1 0 1 0 0-2 1 1 0 0 0 0 2Zm35.3 0a1 1 0 1 0 0-2 1 1 0 0 0 0 2Zm-106.1 35a1 1 0 1 0 0-2 1 1 0 0 0 0 2Zm35.4 0a1 1 0 1 0 0-2 1 1 0 0 0 0 2Zm35.4 0a1 1 0 1 0 0-2 1 1 0 0 0 0 2Zm35.3 0a1 1 0 1 0 0-2 1 1 0 0 0 0 2Zm-106.1 35a1 1 0 1 0 0-2 1 1 0 0 0 0 2Zm35.4 0a1 1 0 1 0 0-2 1 1 0 0 0 0 2Zm35.4 0a1 1 0 1 0 0-2 1 1 0 0 0 0 2Zm35.3 0a1 1 0 1 0 0-2 1 1 0 0 0 0 2Zm-106.1 35a1 1 0 1 0 0-2 1 1 0 0 0 0 2Zm35.4 0a1 1 0 1 0 0-2 1 1 0 0 0 0 2Zm35.4 0a1 1 0 1 0 0-2 1 1 0 0 0 0 2Zm35.3 0a1 1 0 1 0 0-2 1 1 0 0 0 0 2Zm-106.1 175a1 1 0 1 0 0-2 1 1 0 0 0 0 2Zm35.4 0a1 1 0 1 0 0-2 1 1 0 0 0 0 2Zm35.4 0a1 1 0 1 0 0-2 1 1 0 0 0 0 2Zm35.3 0a1 1 0 1 0 0-2 1 1 0 0 0 0 2Zm-106.1 35a1 1 0 1 0 0-2 1 1 0 0 0 0 2Zm35.4 0a1 1 0 1 0 0-2 1 1 0 0 0 0 2Zm35.4 0a1 1 0 1 0 0-2 1 1 0 0 0 0 2Zm35.3 0a1 1 0 1 0 0-2 1 1 0 0 0 0 2Zm-106.1 35a1 1 0 1 0 0-2 1 1 0 0 0 0 2Zm35.4 0a1 1 0 1 0 0-2 1 1 0 0 0 0 2Zm35.4 0a1 1 0 1 0 0-2 1 1 0 0 0 0 2Zm35.3 0a1 1 0 1 0 0-2 1 1 0 0 0 0 2Zm-106.1 35a1 1 0 1 0 0-2 1 1 0 0 0 0 2Zm35.4 0a1 1 0 1 0 0-2 1 1 0 0 0 0 2Zm35.4 0a1 1 0 1 0 0-2 1 1 0 0 0 0 2Zm35.3 0a1 1 0 1 0 0-2 1 1 0 0 0 0 2Zm-106.1-245a1 1 0 1 0 0-2 1 1 0 0 0 0 2Zm35.4 0a1 1 0 1 0 0-2 1 1 0 0 0 0 2Zm35.4 0a1 1 0 1 0 0-2 1 1 0 0 0 0 2Zm35.3 0a1 1 0 1 0 0-2 1 1 0 0 0 0 2Zm-106.1 35a1 1 0 1 0 0-2 1 1 0 0 0 0 2Zm35.4 0a1 1 0 1 0 0-2 1 1 0 0 0 0 2Zm35.4 0a1 1 0 1 0 0-2 1 1 0 0 0 0 2Zm35.3 0a1 1 0 1 0 0-2 1 1 0 0 0 0 2Zm-106.1 35a1 1 0 1 0 0-2 1 1 0 0 0 0 2Zm35.4 0a1 1 0 1 0 0-2 1 1 0 0 0 0 2Zm35.4 0a1 1 0 1 0 0-2 1 1 0 0 0 0 2Zm35.3 0a1 1 0 1 0 0-2 1 1 0 0 0 0 2Zm-106.1 35a1 1 0 1 0 0-2 1 1 0 0 0 0 2Zm35.4 0a1 1 0 1 0 0-2 1 1 0 0 0 0 2Zm35.4 0a1 1 0 1 0 0-2 1 1 0 0 0 0 2Zm35.3 0a1 1 0 1 0 0-2 1 1 0 0 0 0 2Zm35.9-245a1 1 0 1 0 0-2 1 1 0 0 0 0 2Zm35.4 0a1 1 0 1 0 0-2 1 1 0 0 0 0 2Zm35.4 0a1 1 0 1 0 0-2 1 1 0 0 0 0 2Zm35.3 0a1 1 0 1 0 0-2 1 1 0 0 0 0 2Zm-106.1 35a1 1 0 1 0 0-2 1 1 0 0 0 0 2Zm35.4 0a1 1 0 1 0 0-2 1 1 0 0 0 0 2Zm35.4 0a1 1 0 1 0 0-2 1 1 0 0 0 0 2Zm35.3 0a1 1 0 1 0 0-2 1 1 0 0 0 0 2Zm-106.1 35a1 1 0 1 0 0-2 1 1 0 0 0 0 2Zm35.4 0a1 1 0 1 0 0-2 1 1 0 0 0 0 2Zm35.4 0a1 1 0 1 0 0-2 1 1 0 0 0 0 2Zm35.3 0a1 1 0 1 0 0-2 1 1 0 0 0 0 2Zm-106.1 35a1 1 0 1 0 0-2 1 1 0 0 0 0 2Zm35.4 0a1 1 0 1 0 0-2 1 1 0 0 0 0 2Zm35.4 0a1 1 0 1 0 0-2 1 1 0 0 0 0 2Zm35.3 0a1 1 0 1 0 0-2 1 1 0 0 0 0 2Zm-106.1 175a1 1 0 1 0 0-2 1 1 0 0 0 0 2Zm35.4 0a1 1 0 1 0 0-2 1 1 0 0 0 0 2Zm35.4 0a1 1 0 1 0 0-2 1 1 0 0 0 0 2Zm35.3 0a1 1 0 1 0 0-2 1 1 0 0 0 0 2Zm-106.1 35a1 1 0 1 0 0-2 1 1 0 0 0 0 2Zm35.4 0a1 1 0 1 0 0-2 1 1 0 0 0 0 2Zm35.4 0a1 1 0 1 0 0-2 1 1 0 0 0 0 2Zm35.3 0a1 1 0 1 0 0-2 1 1 0 0 0 0 2Zm-106.1 35a1 1 0 1 0 0-2 1 1 0 0 0 0 2Zm35.4 0a1 1 0 1 0 0-2 1 1 0 0 0 0 2Zm35.4 0a1 1 0 1 0 0-2 1 1 0 0 0 0 2Zm35.3 0a1 1 0 1 0 0-2 1 1 0 0 0 0 2Zm-106.1 35a1 1 0 1 0 0-2 1 1 0 0 0 0 2Zm35.4 0a1 1 0 1 0 0-2 1 1 0 0 0 0 2Zm35.4 0a1 1 0 1 0 0-2 1 1 0 0 0 0 2Zm35.3 0a1 1 0 1 0 0-2 1 1 0 0 0 0 2Zm-106.1-245a1 1 0 1 0 0-2 1 1 0 0 0 0 2Zm35.4 0a1 1 0 1 0 0-2 1 1 0 0 0 0 2Zm35.4 0a1 1 0 1 0 0-2 1 1 0 0 0 0 2Zm35.3 0a1 1 0 1 0 0-2 1 1 0 0 0 0 2Zm-106.1 35a1 1 0 1 0 0-2 1 1 0 0 0 0 2Zm35.4 0a1 1 0 1 0 0-2 1 1 0 0 0 0 2Zm35.4 0a1 1 0 1 0 0-2 1 1 0 0 0 0 2Zm35.3 0a1 1 0 1 0 0-2 1 1 0 0 0 0 2Zm-106.1 35a1 1 0 1 0 0-2 1 1 0 0 0 0 2Zm35.4 0a1 1 0 1 0 0-2 1 1 0 0 0 0 2Zm35.4 0a1 1 0 1 0 0-2 1 1 0 0 0 0 2Zm35.3 0a1 1 0 1 0 0-2 1 1 0 0 0 0 2Zm-106.1 35a1 1 0 1 0 0-2 1 1 0 0 0 0 2Zm35.4 0a1 1 0 1 0 0-2 1 1 0 0 0 0 2Zm35.4 0a1 1 0 1 0 0-2 1 1 0 0 0 0 2Zm35.3 0a1 1 0 1 0 0-2 1 1 0 0 0 0 2Zm35.9-245a1 1 0 1 0 0-2 1 1 0 0 0 0 2Zm35.4 0a1 1 0 1 0 0-2 1 1 0 0 0 0 2Zm35.4 0a1 1 0 1 0 0-2 1 1 0 0 0 0 2Zm-70.8 35a1 1 0 1 0 0-2 1 1 0 0 0 0 2Zm35.4 0a1 1 0 1 0 0-2 1 1 0 0 0 0 2Zm35.4 0a1 1 0 1 0 0-2 1 1 0 0 0 0 2Zm-70.8 35a1 1 0 1 0 0-2 1 1 0 0 0 0 2Zm35.4 0a1 1 0 1 0 0-2 1 1 0 0 0 0 2Zm35.4 0a1 1 0 1 0 0-2 1 1 0 0 0 0 2Zm-70.8 35a1 1 0 1 0 0-2 1 1 0 0 0 0 2Zm35.4 0a1 1 0 1 0 0-2 1 1 0 0 0 0 2Zm35.4 0a1 1 0 1 0 0-2 1 1 0 0 0 0 2Zm-70.8 175a1 1 0 1 0 0-2 1 1 0 0 0 0 2Zm35.4 0a1 1 0 1 0 0-2 1 1 0 0 0 0 2Zm35.4 0a1 1 0 1 0 0-2 1 1 0 0 0 0 2Zm-70.8 35a1 1 0 1 0 0-2 1 1 0 0 0 0 2Zm35.4 0a1 1 0 1 0 0-2 1 1 0 0 0 0 2Zm35.4 0a1 1 0 1 0 0-2 1 1 0 0 0 0 2Zm-70.8 35a1 1 0 1 0 0-2 1 1 0 0 0 0 2Zm35.4 0a1 1 0 1 0 0-2 1 1 0 0 0 0 2Zm35.4 0a1 1 0 1 0 0-2 1 1 0 0 0 0 2Zm-70.8 35a1 1 0 1 0 0-2 1 1 0 0 0 0 2Zm35.4 0a1 1 0 1 0 0-2 1 1 0 0 0 0 2Zm35.4 0a1 1 0 1 0 0-2 1 1 0 0 0 0 2Zm-70.8-245a1 1 0 1 0 0-2 1 1 0 0 0 0 2Zm35.4 0a1 1 0 1 0 0-2 1 1 0 0 0 0 2Zm35.4 0a1 1 0 1 0 0-2 1 1 0 0 0 0 2Zm-70.8 35a1 1 0 1 0 0-2 1 1 0 0 0 0 2Zm35.4 0a1 1 0 1 0 0-2 1 1 0 0 0 0 2Zm35.4 0a1 1 0 1 0 0-2 1 1 0 0 0 0 2Zm-70.8 35a1 1 0 1 0 0-2 1 1 0 0 0 0 2Zm35.4 0a1 1 0 1 0 0-2 1 1 0 0 0 0 2Zm35.4 0a1 1 0 1 0 0-2 1 1 0 0 0 0 2Zm-70.8 35a1 1 0 1 0 0-2 1 1 0 0 0 0 2Zm35.4 0a1 1 0 1 0 0-2 1 1 0 0 0 0 2Zm35.4 0a1 1 0 1 0 0-2 1 1 0 0 0 0 2ZM893.6 432a1 1 0 1 0 0-2 1 1 0 0 0 0 2Zm35.4.5a1 1 0 1 0 0-2 1 1 0 0 0 0 2Zm35.4 0a1 1 0 1 0 0-2 1 1 0 0 0 0 2Zm35.4 0a1 1 0 1 0 0-2 1 1 0 0 0 0 2Zm35.3 0a1 1 0 1 0 0-2 1 1 0 0 0 0 2ZM893.6 467a1 1 0 1 0 0-2 1 1 0 0 0 0 2Zm35.4.5a1 1 0 1 0 0-2 1 1 0 0 0 0 2Zm35.4 0a1 1 0 1 0 0-2 1 1 0 0 0 0 2Zm35.4 0a1 1 0 1 0 0-2 1 1 0 0 0 0 2Zm35.3 0a1 1 0 1 0 0-2 1 1 0 0 0 0 2ZM893.6 502a1 1 0 1 0 0-2 1 1 0 0 0 0 2Zm35.4.5a1 1 0 1 0 0-2 1 1 0 0 0 0 2Zm35.4 0a1 1 0 1 0 0-2 1 1 0 0 0 0 2Zm35.4 0a1 1 0 1 0 0-2 1 1 0 0 0 0 2Zm35.3 0a1 1 0 1 0 0-2 1 1 0 0 0 0 2ZM893.6 537a1 1 0 1 0 0-2 1 1 0 0 0 0 2Zm35.4.5a1 1 0 1 0 0-2 1 1 0 0 0 0 2Zm35.4 0a1 1 0 1 0 0-2 1 1 0 0 0 0 2Zm35.4 0a1 1 0 1 0 0-2 1 1 0 0 0 0 2Zm35.3 0a1 1 0 1 0 0-2 1 1 0 0 0 0 2ZM893.6 712a1 1 0 1 0 0-2 1 1 0 0 0 0 2Zm35.4.5a1 1 0 1 0 0-2 1 1 0 0 0 0 2Zm35.4 0a1 1 0 1 0 0-2 1 1 0 0 0 0 2Zm35.4 0a1 1 0 1 0 0-2 1 1 0 0 0 0 2Zm35.3 0a1 1 0 1 0 0-2 1 1 0 0 0 0 2ZM893.6 747a1 1 0 1 0 0-2 1 1 0 0 0 0 2Zm35.4.5a1 1 0 1 0 0-2 1 1 0 0 0 0 2Zm35.4 0a1 1 0 1 0 0-2 1 1 0 0 0 0 2Zm35.4 0a1 1 0 1 0 0-2 1 1 0 0 0 0 2Zm35.3 0a1 1 0 1 0 0-2 1 1 0 0 0 0 2ZM893.6 782a1 1 0 1 0 0-2 1 1 0 0 0 0 2Zm35.4.5a1 1 0 1 0 0-2 1 1 0 0 0 0 2Zm35.4 0a1 1 0 1 0 0-2 1 1 0 0 0 0 2Zm35.4 0a1 1 0 1 0 0-2 1 1 0 0 0 0 2Zm35.3 0a1 1 0 1 0 0-2 1 1 0 0 0 0 2ZM893.6 817a1 1 0 1 0 0-2 1 1 0 0 0 0 2Zm35.4.5a1 1 0 1 0 0-2 1 1 0 0 0 0 2Zm35.4 0a1 1 0 1 0 0-2 1 1 0 0 0 0 2Zm35.4 0a1 1 0 1 0 0-2 1 1 0 0 0 0 2Zm35.3 0a1 1 0 1 0 0-2 1 1 0 0 0 0 2ZM893.6 572a1 1 0 1 0 0-2 1 1 0 0 0 0 2Zm35.4.5a1 1 0 1 0 0-2 1 1 0 0 0 0 2Zm35.4 0a1 1 0 1 0 0-2 1 1 0 0 0 0 2Zm35.4 0a1 1 0 1 0 0-2 1 1 0 0 0 0 2Zm35.3 0a1 1 0 1 0 0-2 1 1 0 0 0 0 2ZM893.6 607a1 1 0 1 0 0-2 1 1 0 0 0 0 2Zm35.4.5a1 1 0 1 0 0-2 1 1 0 0 0 0 2Zm35.4 0a1 1 0 1 0 0-2 1 1 0 0 0 0 2Zm35.4 0a1 1 0 1 0 0-2 1 1 0 0 0 0 2Zm35.3 0a1 1 0 1 0 0-2 1 1 0 0 0 0 2ZM893.6 642a1 1 0 1 0 0-2 1 1 0 0 0 0 2Zm35.4.5a1 1 0 1 0 0-2 1 1 0 0 0 0 2Zm35.4 0a1 1 0 1 0 0-2 1 1 0 0 0 0 2Zm35.4 0a1 1 0 1 0 0-2 1 1 0 0 0 0 2Zm35.3 0a1 1 0 1 0 0-2 1 1 0 0 0 0 2ZM893.6 677a1 1 0 1 0 0-2 1 1 0 0 0 0 2Zm35.4.5a1 1 0 1 0 0-2 1 1 0 0 0 0 2Zm35.4 0a1 1 0 1 0 0-2 1 1 0 0 0 0 2Zm35.4 0a1 1 0 1 0 0-2 1 1 0 0 0 0 2Zm35.3 0a1 1 0 1 0 0-2 1 1 0 0 0 0 2Zm35.9-245a1 1 0 1 0 0-2 1 1 0 0 0 0 2Zm35.4 0a1 1 0 1 0 0-2 1 1 0 0 0 0 2Zm35.4 0a1 1 0 1 0 0-2 1 1 0 0 0 0 2Zm35.3 0a1 1 0 1 0 0-2 1 1 0 0 0 0 2Zm-106.1 35a1 1 0 1 0 0-2 1 1 0 0 0 0 2Zm35.4 0a1 1 0 1 0 0-2 1 1 0 0 0 0 2Zm35.4 0a1 1 0 1 0 0-2 1 1 0 0 0 0 2Zm35.3 0a1 1 0 1 0 0-2 1 1 0 0 0 0 2Zm-106.1 35a1 1 0 1 0 0-2 1 1 0 0 0 0 2Zm35.4 0a1 1 0 1 0 0-2 1 1 0 0 0 0 2Zm35.4 0a1 1 0 1 0 0-2 1 1 0 0 0 0 2Zm35.3 0a1 1 0 1 0 0-2 1 1 0 0 0 0 2Zm-106.1 35a1 1 0 1 0 0-2 1 1 0 0 0 0 2Zm35.4 0a1 1 0 1 0 0-2 1 1 0 0 0 0 2Zm35.4 0a1 1 0 1 0 0-2 1 1 0 0 0 0 2Zm35.3 0a1 1 0 1 0 0-2 1 1 0 0 0 0 2Zm-106.1 175a1 1 0 1 0 0-2 1 1 0 0 0 0 2Zm35.4 0a1 1 0 1 0 0-2 1 1 0 0 0 0 2Zm35.4 0a1 1 0 1 0 0-2 1 1 0 0 0 0 2Zm35.3 0a1 1 0 1 0 0-2 1 1 0 0 0 0 2Zm-106.1 35a1 1 0 1 0 0-2 1 1 0 0 0 0 2Zm35.4 0a1 1 0 1 0 0-2 1 1 0 0 0 0 2Zm35.4 0a1 1 0 1 0 0-2 1 1 0 0 0 0 2Zm35.3 0a1 1 0 1 0 0-2 1 1 0 0 0 0 2Zm-106.1 35a1 1 0 1 0 0-2 1 1 0 0 0 0 2Zm35.4 0a1 1 0 1 0 0-2 1 1 0 0 0 0 2Zm35.4 0a1 1 0 1 0 0-2 1 1 0 0 0 0 2Zm35.3 0a1 1 0 1 0 0-2 1 1 0 0 0 0 2Zm-106.1 35a1 1 0 1 0 0-2 1 1 0 0 0 0 2Zm35.4 0a1 1 0 1 0 0-2 1 1 0 0 0 0 2Zm35.4 0a1 1 0 1 0 0-2 1 1 0 0 0 0 2Zm35.3 0a1 1 0 1 0 0-2 1 1 0 0 0 0 2Zm-106.1-245a1 1 0 1 0 0-2 1 1 0 0 0 0 2Zm35.4 0a1 1 0 1 0 0-2 1 1 0 0 0 0 2Zm35.4 0a1 1 0 1 0 0-2 1 1 0 0 0 0 2Zm35.3 0a1 1 0 1 0 0-2 1 1 0 0 0 0 2Zm-106.1 35a1 1 0 1 0 0-2 1 1 0 0 0 0 2Zm35.4 0a1 1 0 1 0 0-2 1 1 0 0 0 0 2Zm35.4 0a1 1 0 1 0 0-2 1 1 0 0 0 0 2Zm35.3 0a1 1 0 1 0 0-2 1 1 0 0 0 0 2Zm-106.1 35a1 1 0 1 0 0-2 1 1 0 0 0 0 2Zm35.4 0a1 1 0 1 0 0-2 1 1 0 0 0 0 2Zm35.4 0a1 1 0 1 0 0-2 1 1 0 0 0 0 2Zm35.3 0a1 1 0 1 0 0-2 1 1 0 0 0 0 2Zm-106.1 35a1 1 0 1 0 0-2 1 1 0 0 0 0 2Zm35.4 0a1 1 0 1 0 0-2 1 1 0 0 0 0 2Zm35.4 0a1 1 0 1 0 0-2 1 1 0 0 0 0 2Zm35.3 0a1 1 0 1 0 0-2 1 1 0 0 0 0 2Zm35.9-245a1 1 0 1 0 0-2 1 1 0 0 0 0 2Zm35.4 0a1 1 0 1 0 0-2 1 1 0 0 0 0 2Zm35.4 0a1 1 0 1 0 0-2 1 1 0 0 0 0 2Zm35.3 0a1 1 0 1 0 0-2 1 1 0 0 0 0 2Zm-106.1 35a1 1 0 1 0 0-2 1 1 0 0 0 0 2Zm35.4 0a1 1 0 1 0 0-2 1 1 0 0 0 0 2Zm35.4 0a1 1 0 1 0 0-2 1 1 0 0 0 0 2Zm35.3 0a1 1 0 1 0 0-2 1 1 0 0 0 0 2Zm-106.1 35a1 1 0 1 0 0-2 1 1 0 0 0 0 2Zm35.4 0a1 1 0 1 0 0-2 1 1 0 0 0 0 2Zm35.4 0a1 1 0 1 0 0-2 1 1 0 0 0 0 2Zm35.3 0a1 1 0 1 0 0-2 1 1 0 0 0 0 2Zm-106.1 35a1 1 0 1 0 0-2 1 1 0 0 0 0 2Zm35.4 0a1 1 0 1 0 0-2 1 1 0 0 0 0 2Zm35.4 0a1 1 0 1 0 0-2 1 1 0 0 0 0 2Zm35.3 0a1 1 0 1 0 0-2 1 1 0 0 0 0 2Zm-106.1 175a1 1 0 1 0 0-2 1 1 0 0 0 0 2Zm35.4 0a1 1 0 1 0 0-2 1 1 0 0 0 0 2Zm35.4 0a1 1 0 1 0 0-2 1 1 0 0 0 0 2Zm35.3 0a1 1 0 1 0 0-2 1 1 0 0 0 0 2Zm-106.1 35a1 1 0 1 0 0-2 1 1 0 0 0 0 2Zm35.4 0a1 1 0 1 0 0-2 1 1 0 0 0 0 2Zm35.4 0a1 1 0 1 0 0-2 1 1 0 0 0 0 2Zm35.3 0a1 1 0 1 0 0-2 1 1 0 0 0 0 2Zm-106.1 35a1 1 0 1 0 0-2 1 1 0 0 0 0 2Zm35.4 0a1 1 0 1 0 0-2 1 1 0 0 0 0 2Zm35.4 0a1 1 0 1 0 0-2 1 1 0 0 0 0 2Zm35.3 0a1 1 0 1 0 0-2 1 1 0 0 0 0 2Zm-106.1 35a1 1 0 1 0 0-2 1 1 0 0 0 0 2Zm35.4 0a1 1 0 1 0 0-2 1 1 0 0 0 0 2Zm35.4 0a1 1 0 1 0 0-2 1 1 0 0 0 0 2Zm35.3 0a1 1 0 1 0 0-2 1 1 0 0 0 0 2Zm-106.1-245a1 1 0 1 0 0-2 1 1 0 0 0 0 2Zm35.4 0a1 1 0 1 0 0-2 1 1 0 0 0 0 2Zm35.4 0a1 1 0 1 0 0-2 1 1 0 0 0 0 2Zm35.3 0a1 1 0 1 0 0-2 1 1 0 0 0 0 2Zm-106.1 35a1 1 0 1 0 0-2 1 1 0 0 0 0 2Zm35.4 0a1 1 0 1 0 0-2 1 1 0 0 0 0 2Zm35.4 0a1 1 0 1 0 0-2 1 1 0 0 0 0 2Zm35.3 0a1 1 0 1 0 0-2 1 1 0 0 0 0 2Zm-106.1 35a1 1 0 1 0 0-2 1 1 0 0 0 0 2Zm35.4 0a1 1 0 1 0 0-2 1 1 0 0 0 0 2Zm35.4 0a1 1 0 1 0 0-2 1 1 0 0 0 0 2Zm35.3 0a1 1 0 1 0 0-2 1 1 0 0 0 0 2Zm-106.1 35a1 1 0 1 0 0-2 1 1 0 0 0 0 2Zm35.4 0a1 1 0 1 0 0-2 1 1 0 0 0 0 2Zm35.4 0a1 1 0 1 0 0-2 1 1 0 0 0 0 2Zm35.3 0a1 1 0 1 0 0-2 1 1 0 0 0 0 2Zm35.9-245a1 1 0 1 0 0-2 1 1 0 0 0 0 2Zm35.4 0a1 1 0 1 0 0-2 1 1 0 0 0 0 2Zm35.4 0a1 1 0 1 0 0-2 1 1 0 0 0 0 2Zm-70.8 35a1 1 0 1 0 0-2 1 1 0 0 0 0 2Zm35.4 0a1 1 0 1 0 0-2 1 1 0 0 0 0 2Zm35.4 0a1 1 0 1 0 0-2 1 1 0 0 0 0 2Zm-70.8 35a1 1 0 1 0 0-2 1 1 0 0 0 0 2Zm35.4 0a1 1 0 1 0 0-2 1 1 0 0 0 0 2Zm35.4 0a1 1 0 1 0 0-2 1 1 0 0 0 0 2Zm-70.8 35a1 1 0 1 0 0-2 1 1 0 0 0 0 2Zm35.4 0a1 1 0 1 0 0-2 1 1 0 0 0 0 2Zm35.4 0a1 1 0 1 0 0-2 1 1 0 0 0 0 2Zm-70.8 175a1 1 0 1 0 0-2 1 1 0 0 0 0 2Zm35.4 0a1 1 0 1 0 0-2 1 1 0 0 0 0 2Zm35.4 0a1 1 0 1 0 0-2 1 1 0 0 0 0 2Zm-70.8 35a1 1 0 1 0 0-2 1 1 0 0 0 0 2Zm35.4 0a1 1 0 1 0 0-2 1 1 0 0 0 0 2Zm35.4 0a1 1 0 1 0 0-2 1 1 0 0 0 0 2Zm-70.8 35a1 1 0 1 0 0-2 1 1 0 0 0 0 2Zm35.4 0a1 1 0 1 0 0-2 1 1 0 0 0 0 2Zm35.4 0a1 1 0 1 0 0-2 1 1 0 0 0 0 2Zm-70.8 35a1 1 0 1 0 0-2 1 1 0 0 0 0 2Zm35.4 0a1 1 0 1 0 0-2 1 1 0 0 0 0 2Zm35.4 0a1 1 0 1 0 0-2 1 1 0 0 0 0 2Zm-70.8-245a1 1 0 1 0 0-2 1 1 0 0 0 0 2Zm35.4 0a1 1 0 1 0 0-2 1 1 0 0 0 0 2Zm35.4 0a1 1 0 1 0 0-2 1 1 0 0 0 0 2Zm-70.8 35a1 1 0 1 0 0-2 1 1 0 0 0 0 2Zm35.4 0a1 1 0 1 0 0-2 1 1 0 0 0 0 2Zm35.4 0a1 1 0 1 0 0-2 1 1 0 0 0 0 2Zm-70.8 35a1 1 0 1 0 0-2 1 1 0 0 0 0 2Zm35.4 0a1 1 0 1 0 0-2 1 1 0 0 0 0 2Zm35.4 0a1 1 0 1 0 0-2 1 1 0 0 0 0 2Zm-70.8 35a1 1 0 1 0 0-2 1 1 0 0 0 0 2Zm35.4 0a1 1 0 1 0 0-2 1 1 0 0 0 0 2Zm35.4 0a1 1 0 1 0 0-2 1 1 0 0 0 0 2ZM893.6 853a1 1 0 1 0 0-2 1 1 0 0 0 0 2Zm35.4.5a1 1 0 1 0 0-2 1 1 0 0 0 0 2Zm35.4 0a1 1 0 1 0 0-2 1 1 0 0 0 0 2Zm35.4 0a1 1 0 1 0 0-2 1 1 0 0 0 0 2Zm35.3 0a1 1 0 1 0 0-2 1 1 0 0 0 0 2ZM893.6 888a1 1 0 1 0 0-2 1 1 0 0 0 0 2Zm35.4.5a1 1 0 1 0 0-2 1 1 0 0 0 0 2Zm35.4 0a1 1 0 1 0 0-2 1 1 0 0 0 0 2Zm35.4 0a1 1 0 1 0 0-2 1 1 0 0 0 0 2Zm35.3 0a1 1 0 1 0 0-2 1 1 0 0 0 0 2ZM893.6 923a1 1 0 1 0 0-2 1 1 0 0 0 0 2Zm35.4.5a1 1 0 1 0 0-2 1 1 0 0 0 0 2Zm35.4 0a1 1 0 1 0 0-2 1 1 0 0 0 0 2Zm35.4 0a1 1 0 1 0 0-2 1 1 0 0 0 0 2Zm35.3 0a1 1 0 1 0 0-2 1 1 0 0 0 0 2ZM893.6 958a1 1 0 1 0 0-2 1 1 0 0 0 0 2Zm35.4.5a1 1 0 1 0 0-2 1 1 0 0 0 0 2Zm35.4 0a1 1 0 1 0 0-2 1 1 0 0 0 0 2Zm35.4 0a1 1 0 1 0 0-2 1 1 0 0 0 0 2Zm35.3 0a1 1 0 1 0 0-2 1 1 0 0 0 0 2ZM893.6 993a1 1 0 1 0 0-2 1 1 0 0 0 0 2Zm35.4.5a1 1 0 1 0 0-2 1 1 0 0 0 0 2Zm35.4 0a1 1 0 1 0 0-2 1 1 0 0 0 0 2Zm35.4 0a1 1 0 1 0 0-2 1 1 0 0 0 0 2Zm35.3 0a1 1 0 1 0 0-2 1 1 0 0 0 0 2ZM893.6 1028a1 1 0 1 0 0-2 1 1 0 0 0 0 2Zm35.4.5a1 1 0 1 0 0-2 1 1 0 0 0 0 2Zm35.4 0a1 1 0 1 0 0-2 1 1 0 0 0 0 2Zm35.4 0c.5 0 1-.5 1-1s-.5-1-1-1a1 1 0 0 0 0 2Zm35.3 0a1 1 0 0 0 0-2 1 1 0 0 0-1 1c0 .5.5 1 1 1ZM893.6 1063a1 1 0 1 0 0-2 1 1 0 0 0 0 2Zm35.4.5a1 1 0 1 0 0-2 1 1 0 0 0 0 2Zm35.4 0a1 1 0 1 0 0-2 1 1 0 0 0 0 2Zm35.4 0c.5 0 1-.5 1-1s-.5-1-1-1a1 1 0 0 0 0 2Zm35.3 0a1 1 0 0 0 0-2 1 1 0 0 0-1 1c0 .5.5 1 1 1Zm35.9-210a1 1 0 1 0 0-2 1 1 0 0 0 0 2Zm35.4 0a1 1 0 1 0 0-2 1 1 0 0 0 0 2Zm35.4 0a1 1 0 1 0 0-2 1 1 0 0 0 0 2Zm35.3 0a1 1 0 1 0 0-2 1 1 0 0 0 0 2Zm-106.1 35a1 1 0 1 0 0-2 1 1 0 0 0 0 2Zm35.4 0a1 1 0 1 0 0-2 1 1 0 0 0 0 2Zm35.4 0a1 1 0 1 0 0-2 1 1 0 0 0 0 2Zm35.3 0a1 1 0 1 0 0-2 1 1 0 0 0 0 2Zm-106.1 35a1 1 0 1 0 0-2 1 1 0 0 0 0 2Zm35.4 0a1 1 0 1 0 0-2 1 1 0 0 0 0 2Zm35.4 0a1 1 0 1 0 0-2 1 1 0 0 0 0 2Zm35.3 0a1 1 0 1 0 0-2 1 1 0 0 0 0 2Zm-106.1 35a1 1 0 1 0 0-2 1 1 0 0 0 0 2Zm35.4 0a1 1 0 1 0 0-2 1 1 0 0 0 0 2Zm35.4 0a1 1 0 1 0 0-2 1 1 0 0 0 0 2Zm35.3 0a1 1 0 1 0 0-2 1 1 0 0 0 0 2Zm-106.1 35a1 1 0 1 0 0-2 1 1 0 0 0 0 2Zm35.4 0a1 1 0 1 0 0-2 1 1 0 0 0 0 2Zm35.4 0a1 1 0 1 0 0-2 1 1 0 0 0 0 2Zm35.3 0a1 1 0 1 0 0-2 1 1 0 0 0 0 2Zm-106.1 35c.5 0 1-.5 1-1s-.5-1-1-1a1 1 0 0 0-1 1c0 .5.5 1 1 1Zm35.4 0c.5 0 1-.5 1-1s-.5-1-1-1a1 1 0 0 0-1 1c0 .5.4 1 1 1Zm35.4 0c.5 0 1-.5 1-1s-.5-1-1-1a1 1 0 0 0-1 1c0 .5.4 1 1 1Zm35.3 0a1 1 0 0 0 0-2 1 1 0 0 0-1 1c0 .5.5 1 1 1Zm-106.1 35c.5 0 1-.5 1-1s-.5-1-1-1a1 1 0 0 0-1 1c0 .5.5 1 1 1Zm35.4 0c.5 0 1-.5 1-1s-.5-1-1-1a1 1 0 0 0-1 1c0 .5.4 1 1 1Zm35.4 0c.5 0 1-.5 1-1s-.5-1-1-1a1 1 0 0 0-1 1c0 .5.4 1 1 1Zm35.3 0a1 1 0 0 0 0-2 1 1 0 0 0-1 1c0 .5.5 1 1 1Zm35.9-210a1 1 0 1 0 0-2 1 1 0 0 0 0 2Zm35.4 0a1 1 0 1 0 0-2 1 1 0 0 0 0 2Zm35.4 0a1 1 0 1 0 0-2 1 1 0 0 0 0 2Zm35.3 0a1 1 0 1 0 0-2 1 1 0 0 0 0 2Zm-106.1 35a1 1 0 1 0 0-2 1 1 0 0 0 0 2Zm35.4 0a1 1 0 1 0 0-2 1 1 0 0 0 0 2Zm35.4 0a1 1 0 1 0 0-2 1 1 0 0 0 0 2Zm35.3 0a1 1 0 1 0 0-2 1 1 0 0 0 0 2Zm-106.1 35a1 1 0 1 0 0-2 1 1 0 0 0 0 2Zm35.4 0a1 1 0 1 0 0-2 1 1 0 0 0 0 2Zm35.4 0a1 1 0 1 0 0-2 1 1 0 0 0 0 2Zm35.3 0a1 1 0 1 0 0-2 1 1 0 0 0 0 2Zm-106.1 35a1 1 0 1 0 0-2 1 1 0 0 0 0 2Zm35.4 0a1 1 0 1 0 0-2 1 1 0 0 0 0 2Zm35.4 0a1 1 0 1 0 0-2 1 1 0 0 0 0 2Zm35.3 0a1 1 0 1 0 0-2 1 1 0 0 0 0 2Zm-106.1 35a1 1 0 1 0 0-2 1 1 0 0 0 0 2Zm35.4 0a1 1 0 1 0 0-2 1 1 0 0 0 0 2Zm35.4 0a1 1 0 1 0 0-2 1 1 0 0 0 0 2Zm35.3 0a1 1 0 1 0 0-2 1 1 0 0 0 0 2Zm-106.1 35c.5 0 1-.5 1-1s-.5-1-1-1a1 1 0 0 0-1 1c0 .5.5 1 1 1Zm35.4 0c.5 0 1-.5 1-1s-.5-1-1-1a1 1 0 0 0-1 1c0 .5.4 1 1 1Zm35.4 0c.5 0 1-.5 1-1s-.5-1-1-1a1 1 0 0 0-1 1c0 .5.4 1 1 1Zm35.3 0a1 1 0 0 0 0-2 1 1 0 0 0-1 1c0 .5.5 1 1 1Zm-106.1 35c.5 0 1-.5 1-1s-.5-1-1-1a1 1 0 0 0-1 1c0 .5.5 1 1 1Zm35.4 0c.5 0 1-.5 1-1s-.5-1-1-1a1 1 0 0 0-1 1c0 .5.4 1 1 1Zm35.4 0c.5 0 1-.5 1-1s-.5-1-1-1a1 1 0 0 0-1 1c0 .5.4 1 1 1Zm35.3 0a1 1 0 0 0 0-2 1 1 0 0 0-1 1c0 .5.5 1 1 1Zm35.9-210a1 1 0 1 0 0-2 1 1 0 0 0 0 2Zm35.4 0a1 1 0 1 0 0-2 1 1 0 0 0 0 2Zm35.4 0a1 1 0 1 0 0-2 1 1 0 0 0 0 2Zm-70.8 35a1 1 0 1 0 0-2 1 1 0 0 0 0 2Zm35.4 0a1 1 0 1 0 0-2 1 1 0 0 0 0 2Zm35.4 0a1 1 0 1 0 0-2 1 1 0 0 0 0 2Zm-70.8 35a1 1 0 1 0 0-2 1 1 0 0 0 0 2Zm35.4 0a1 1 0 1 0 0-2 1 1 0 0 0 0 2Zm35.4 0a1 1 0 1 0 0-2 1 1 0 0 0 0 2Zm-70.8 35a1 1 0 1 0 0-2 1 1 0 0 0 0 2Zm35.4 0a1 1 0 1 0 0-2 1 1 0 0 0 0 2Zm35.4 0a1 1 0 1 0 0-2 1 1 0 0 0 0 2Zm-70.8 35a1 1 0 1 0 0-2 1 1 0 0 0 0 2Zm35.4 0a1 1 0 1 0 0-2 1 1 0 0 0 0 2Zm35.4 0a1 1 0 1 0 0-2 1 1 0 0 0 0 2Zm-70.8 35c.5 0 1-.5 1-1s-.5-1-1-1a1 1 0 0 0-1 1c0 .5.5 1 1 1Zm35.4 0c.5 0 1-.5 1-1s-.5-1-1-1a1 1 0 0 0-1 1c0 .5.4 1 1 1Zm35.4 0c.5 0 1-.5 1-1s-.5-1-1-1a1 1 0 0 0-1 1c0 .5.4 1 1 1Zm-70.8 35c.5 0 1-.5 1-1s-.5-1-1-1a1 1 0 0 0-1 1c0 .5.5 1 1 1Zm35.4 0c.5 0 1-.5 1-1s-.5-1-1-1a1 1 0 0 0-1 1c0 .5.4 1 1 1Zm35.4 0c.5 0 1-.5 1-1s-.5-1-1-1a1 1 0 0 0-1 1c0 .5.4 1 1 1ZM291.6 12a1 1 0 1 0 0-2 1 1 0 0 0 0 2Zm35.4.5a1 1 0 1 0 0-2 1 1 0 0 0 0 2Zm35.4 0a1 1 0 1 0 0-2 1 1 0 0 0 0 2Zm35.4 0a1 1 0 1 0 0-2 1 1 0 0 0 0 2Zm35.3 0a1 1 0 1 0 0-2 1 1 0 0 0 0 2ZM291.6 47a1 1 0 1 0 0-2 1 1 0 0 0 0 2Zm35.4.5a1 1 0 1 0 0-2 1 1 0 0 0 0 2Zm35.4 0a1 1 0 1 0 0-2 1 1 0 0 0 0 2Zm35.4 0a1 1 0 1 0 0-2 1 1 0 0 0 0 2Zm35.3 0a1 1 0 1 0 0-2 1 1 0 0 0 0 2ZM291.6 82a1 1 0 1 0 0-2 1 1 0 0 0 0 2Zm35.4.5a1 1 0 1 0 0-2 1 1 0 0 0 0 2Zm35.4 0a1 1 0 1 0 0-2 1 1 0 0 0 0 2Zm35.4 0a1 1 0 1 0 0-2 1 1 0 0 0 0 2Zm35.3 0a1 1 0 1 0 0-2 1 1 0 0 0 0 2ZM291.6 117a1 1 0 1 0 0-2 1 1 0 0 0 0 2Zm35.4.5a1 1 0 1 0 0-2 1 1 0 0 0 0 2Zm35.4 0a1 1 0 1 0 0-2 1 1 0 0 0 0 2Zm35.4 0a1 1 0 1 0 0-2 1 1 0 0 0 0 2Zm35.3 0a1 1 0 1 0 0-2 1 1 0 0 0 0 2ZM291.6 292a1 1 0 1 0 0-2 1 1 0 0 0 0 2Zm35.4.5a1 1 0 1 0 0-2 1 1 0 0 0 0 2Zm35.4 0a1 1 0 1 0 0-2 1 1 0 0 0 0 2Zm35.4 0a1 1 0 1 0 0-2 1 1 0 0 0 0 2Zm35.3 0a1 1 0 1 0 0-2 1 1 0 0 0 0 2ZM291.6 327a1 1 0 1 0 0-2 1 1 0 0 0 0 2Zm35.4.5a1 1 0 1 0 0-2 1 1 0 0 0 0 2Zm35.4 0a1 1 0 1 0 0-2 1 1 0 0 0 0 2Zm35.4 0a1 1 0 1 0 0-2 1 1 0 0 0 0 2Zm35.3 0a1 1 0 1 0 0-2 1 1 0 0 0 0 2ZM291.6 362a1 1 0 1 0 0-2 1 1 0 0 0 0 2Zm35.4.5a1 1 0 1 0 0-2 1 1 0 0 0 0 2Zm35.4 0a1 1 0 1 0 0-2 1 1 0 0 0 0 2Zm35.4 0a1 1 0 1 0 0-2 1 1 0 0 0 0 2Zm35.3 0a1 1 0 1 0 0-2 1 1 0 0 0 0 2ZM291.6 397a1 1 0 1 0 0-2 1 1 0 0 0 0 2Zm35.4.5a1 1 0 1 0 0-2 1 1 0 0 0 0 2Zm35.4 0a1 1 0 1 0 0-2 1 1 0 0 0 0 2Zm35.4 0a1 1 0 1 0 0-2 1 1 0 0 0 0 2Zm35.3 0a1 1 0 1 0 0-2 1 1 0 0 0 0 2ZM291.6 152a1 1 0 1 0 0-2 1 1 0 0 0 0 2Zm35.4.5a1 1 0 1 0 0-2 1 1 0 0 0 0 2Zm35.4 0a1 1 0 1 0 0-2 1 1 0 0 0 0 2Zm35.4 0a1 1 0 1 0 0-2 1 1 0 0 0 0 2Zm35.3 0a1 1 0 1 0 0-2 1 1 0 0 0 0 2ZM291.6 187a1 1 0 1 0 0-2 1 1 0 0 0 0 2Zm35.4.5a1 1 0 1 0 0-2 1 1 0 0 0 0 2Zm35.4 0a1 1 0 1 0 0-2 1 1 0 0 0 0 2Zm35.4 0a1 1 0 1 0 0-2 1 1 0 0 0 0 2Zm35.3 0a1 1 0 1 0 0-2 1 1 0 0 0 0 2ZM291.6 222a1 1 0 1 0 0-2 1 1 0 0 0 0 2Zm35.4.5a1 1 0 1 0 0-2 1 1 0 0 0 0 2Zm35.4 0a1 1 0 1 0 0-2 1 1 0 0 0 0 2Zm35.4 0a1 1 0 1 0 0-2 1 1 0 0 0 0 2Zm35.3 0a1 1 0 1 0 0-2 1 1 0 0 0 0 2ZM291.6 257a1 1 0 1 0 0-2 1 1 0 0 0 0 2Zm35.4.5a1 1 0 1 0 0-2 1 1 0 0 0 0 2Zm35.4 0a1 1 0 1 0 0-2 1 1 0 0 0 0 2Zm35.4 0a1 1 0 1 0 0-2 1 1 0 0 0 0 2Zm35.3 0a1 1 0 1 0 0-2 1 1 0 0 0 0 2Zm35.9-245a1 1 0 1 0 0-2 1 1 0 0 0 0 2Zm35.4 0a1 1 0 1 0 0-2 1 1 0 0 0 0 2Zm35.4 0a1 1 0 1 0 0-2 1 1 0 0 0 0 2Zm35.3 0a1 1 0 1 0 0-2 1 1 0 0 0 0 2ZM469 47.5a1 1 0 1 0 0-2 1 1 0 0 0 0 2Zm35.4 0a1 1 0 1 0 0-2 1 1 0 0 0 0 2Zm35.4 0a1 1 0 1 0 0-2 1 1 0 0 0 0 2Zm35.3 0a1 1 0 1 0 0-2 1 1 0 0 0 0 2ZM469 82.5a1 1 0 1 0 0-2 1 1 0 0 0 0 2Zm35.4 0a1 1 0 1 0 0-2 1 1 0 0 0 0 2Zm35.4 0a1 1 0 1 0 0-2 1 1 0 0 0 0 2Zm35.3 0a1 1 0 1 0 0-2 1 1 0 0 0 0 2Zm-106.1 35a1 1 0 1 0 0-2 1 1 0 0 0 0 2Zm35.4 0a1 1 0 1 0 0-2 1 1 0 0 0 0 2Zm35.4 0a1 1 0 1 0 0-2 1 1 0 0 0 0 2Zm35.3 0a1 1 0 1 0 0-2 1 1 0 0 0 0 2ZM469 292.5a1 1 0 1 0 0-2 1 1 0 0 0 0 2Zm35.4 0a1 1 0 1 0 0-2 1 1 0 0 0 0 2Zm35.4 0a1 1 0 1 0 0-2 1 1 0 0 0 0 2Zm35.3 0a1 1 0 1 0 0-2 1 1 0 0 0 0 2Zm-106.1 35a1 1 0 1 0 0-2 1 1 0 0 0 0 2Zm35.4 0a1 1 0 1 0 0-2 1 1 0 0 0 0 2Zm35.4 0a1 1 0 1 0 0-2 1 1 0 0 0 0 2Zm35.3 0a1 1 0 1 0 0-2 1 1 0 0 0 0 2Zm-106.1 35a1 1 0 1 0 0-2 1 1 0 0 0 0 2Zm35.4 0a1 1 0 1 0 0-2 1 1 0 0 0 0 2Zm35.4 0a1 1 0 1 0 0-2 1 1 0 0 0 0 2Zm35.3 0a1 1 0 1 0 0-2 1 1 0 0 0 0 2Zm-106.1 35a1 1 0 1 0 0-2 1 1 0 0 0 0 2Zm35.4 0a1 1 0 1 0 0-2 1 1 0 0 0 0 2Zm35.4 0a1 1 0 1 0 0-2 1 1 0 0 0 0 2Zm35.3 0a1 1 0 1 0 0-2 1 1 0 0 0 0 2ZM469 152.5a1 1 0 1 0 0-2 1 1 0 0 0 0 2Zm35.4 0a1 1 0 1 0 0-2 1 1 0 0 0 0 2Zm35.4 0a1 1 0 1 0 0-2 1 1 0 0 0 0 2Zm35.3 0a1 1 0 1 0 0-2 1 1 0 0 0 0 2Zm-106.1 35a1 1 0 1 0 0-2 1 1 0 0 0 0 2Zm35.4 0a1 1 0 1 0 0-2 1 1 0 0 0 0 2Zm35.4 0a1 1 0 1 0 0-2 1 1 0 0 0 0 2Zm35.3 0a1 1 0 1 0 0-2 1 1 0 0 0 0 2Zm-106.1 35a1 1 0 1 0 0-2 1 1 0 0 0 0 2Zm35.4 0a1 1 0 1 0 0-2 1 1 0 0 0 0 2Zm35.4 0a1 1 0 1 0 0-2 1 1 0 0 0 0 2Zm35.3 0a1 1 0 1 0 0-2 1 1 0 0 0 0 2Zm-106.1 35a1 1 0 1 0 0-2 1 1 0 0 0 0 2Zm35.4 0a1 1 0 1 0 0-2 1 1 0 0 0 0 2Zm35.4 0a1 1 0 1 0 0-2 1 1 0 0 0 0 2Zm35.3 0a1 1 0 1 0 0-2 1 1 0 0 0 0 2Zm35.9-245a1 1 0 1 0 0-2 1 1 0 0 0 0 2Zm35.4 0a1 1 0 1 0 0-2 1 1 0 0 0 0 2Zm35.4 0a1 1 0 1 0 0-2 1 1 0 0 0 0 2Zm35.3 0a1 1 0 1 0 0-2 1 1 0 0 0 0 2ZM611 47.5a1 1 0 1 0 0-2 1 1 0 0 0 0 2Zm35.4 0a1 1 0 1 0 0-2 1 1 0 0 0 0 2Zm35.4 0a1 1 0 1 0 0-2 1 1 0 0 0 0 2Zm35.3 0a1 1 0 1 0 0-2 1 1 0 0 0 0 2ZM611 82.5a1 1 0 1 0 0-2 1 1 0 0 0 0 2Zm35.4 0a1 1 0 1 0 0-2 1 1 0 0 0 0 2Zm35.4 0a1 1 0 1 0 0-2 1 1 0 0 0 0 2Zm35.3 0a1 1 0 1 0 0-2 1 1 0 0 0 0 2Zm-106.1 35a1 1 0 1 0 0-2 1 1 0 0 0 0 2Zm35.4 0a1 1 0 1 0 0-2 1 1 0 0 0 0 2Zm35.4 0a1 1 0 1 0 0-2 1 1 0 0 0 0 2Zm35.3 0a1 1 0 1 0 0-2 1 1 0 0 0 0 2ZM611 292.5a1 1 0 1 0 0-2 1 1 0 0 0 0 2Zm35.4 0a1 1 0 1 0 0-2 1 1 0 0 0 0 2Zm35.4 0a1 1 0 1 0 0-2 1 1 0 0 0 0 2Zm35.3 0a1 1 0 1 0 0-2 1 1 0 0 0 0 2Zm-106.1 35a1 1 0 1 0 0-2 1 1 0 0 0 0 2Zm35.4 0a1 1 0 1 0 0-2 1 1 0 0 0 0 2Zm35.4 0a1 1 0 1 0 0-2 1 1 0 0 0 0 2Zm35.3 0a1 1 0 1 0 0-2 1 1 0 0 0 0 2Zm-106.1 35a1 1 0 1 0 0-2 1 1 0 0 0 0 2Zm35.4 0a1 1 0 1 0 0-2 1 1 0 0 0 0 2Zm35.4 0a1 1 0 1 0 0-2 1 1 0 0 0 0 2Zm35.3 0a1 1 0 1 0 0-2 1 1 0 0 0 0 2Zm-106.1 35a1 1 0 1 0 0-2 1 1 0 0 0 0 2Zm35.4 0a1 1 0 1 0 0-2 1 1 0 0 0 0 2Zm35.4 0a1 1 0 1 0 0-2 1 1 0 0 0 0 2Zm35.3 0a1 1 0 1 0 0-2 1 1 0 0 0 0 2ZM611 152.5a1 1 0 1 0 0-2 1 1 0 0 0 0 2Zm35.4 0a1 1 0 1 0 0-2 1 1 0 0 0 0 2Zm35.4 0a1 1 0 1 0 0-2 1 1 0 0 0 0 2Zm35.3 0a1 1 0 1 0 0-2 1 1 0 0 0 0 2Zm-106.1 35a1 1 0 1 0 0-2 1 1 0 0 0 0 2Zm35.4 0a1 1 0 1 0 0-2 1 1 0 0 0 0 2Zm35.4 0a1 1 0 1 0 0-2 1 1 0 0 0 0 2Zm35.3 0a1 1 0 1 0 0-2 1 1 0 0 0 0 2Zm-106.1 35a1 1 0 1 0 0-2 1 1 0 0 0 0 2Zm35.4 0a1 1 0 1 0 0-2 1 1 0 0 0 0 2Zm35.4 0a1 1 0 1 0 0-2 1 1 0 0 0 0 2Zm35.3 0a1 1 0 1 0 0-2 1 1 0 0 0 0 2Zm-106.1 35a1 1 0 1 0 0-2 1 1 0 0 0 0 2Zm35.4 0a1 1 0 1 0 0-2 1 1 0 0 0 0 2Zm35.4 0a1 1 0 1 0 0-2 1 1 0 0 0 0 2Zm35.3 0a1 1 0 1 0 0-2 1 1 0 0 0 0 2Zm35.9-245a1 1 0 1 0 0-2 1 1 0 0 0 0 2Zm35.4 0a1 1 0 1 0 0-2 1 1 0 0 0 0 2Zm35.4 0a1 1 0 1 0 0-2 1 1 0 0 0 0 2Zm35.3 0a1 1 0 1 0 0-2 1 1 0 0 0 0 2ZM753 47.5a1 1 0 1 0 0-2 1 1 0 0 0 0 2Zm35.4 0a1 1 0 1 0 0-2 1 1 0 0 0 0 2Zm35.4 0a1 1 0 1 0 0-2 1 1 0 0 0 0 2Zm35.3 0a1 1 0 1 0 0-2 1 1 0 0 0 0 2ZM753 82.5a1 1 0 1 0 0-2 1 1 0 0 0 0 2Zm35.4 0a1 1 0 1 0 0-2 1 1 0 0 0 0 2Zm35.4 0a1 1 0 1 0 0-2 1 1 0 0 0 0 2Zm35.3 0a1 1 0 1 0 0-2 1 1 0 0 0 0 2Zm-106.1 35a1 1 0 1 0 0-2 1 1 0 0 0 0 2Zm35.4 0a1 1 0 1 0 0-2 1 1 0 0 0 0 2Zm35.4 0a1 1 0 1 0 0-2 1 1 0 0 0 0 2Zm35.3 0a1 1 0 1 0 0-2 1 1 0 0 0 0 2ZM753 292.5a1 1 0 1 0 0-2 1 1 0 0 0 0 2Zm35.4 0a1 1 0 1 0 0-2 1 1 0 0 0 0 2Zm35.4 0a1 1 0 1 0 0-2 1 1 0 0 0 0 2Zm35.3 0a1 1 0 1 0 0-2 1 1 0 0 0 0 2Zm-106.1 35a1 1 0 1 0 0-2 1 1 0 0 0 0 2Zm35.4 0a1 1 0 1 0 0-2 1 1 0 0 0 0 2Zm35.4 0a1 1 0 1 0 0-2 1 1 0 0 0 0 2Zm35.3 0a1 1 0 1 0 0-2 1 1 0 0 0 0 2Zm-106.1 35a1 1 0 1 0 0-2 1 1 0 0 0 0 2Zm35.4 0a1 1 0 1 0 0-2 1 1 0 0 0 0 2Zm35.4 0a1 1 0 1 0 0-2 1 1 0 0 0 0 2Zm35.3 0a1 1 0 1 0 0-2 1 1 0 0 0 0 2Zm-106.1 35a1 1 0 1 0 0-2 1 1 0 0 0 0 2Zm35.4 0a1 1 0 1 0 0-2 1 1 0 0 0 0 2Zm35.4 0a1 1 0 1 0 0-2 1 1 0 0 0 0 2Zm35.3 0a1 1 0 1 0 0-2 1 1 0 0 0 0 2ZM753 152.5a1 1 0 1 0 0-2 1 1 0 0 0 0 2Zm35.4 0a1 1 0 1 0 0-2 1 1 0 0 0 0 2Zm35.4 0a1 1 0 1 0 0-2 1 1 0 0 0 0 2Zm35.3 0a1 1 0 1 0 0-2 1 1 0 0 0 0 2Zm-106.1 35a1 1 0 1 0 0-2 1 1 0 0 0 0 2Zm35.4 0a1 1 0 1 0 0-2 1 1 0 0 0 0 2Zm35.4 0a1 1 0 1 0 0-2 1 1 0 0 0 0 2Zm35.3 0a1 1 0 1 0 0-2 1 1 0 0 0 0 2Zm-106.1 35a1 1 0 1 0 0-2 1 1 0 0 0 0 2Zm35.4 0a1 1 0 1 0 0-2 1 1 0 0 0 0 2Zm35.4 0a1 1 0 1 0 0-2 1 1 0 0 0 0 2Zm35.3 0a1 1 0 1 0 0-2 1 1 0 0 0 0 2Zm-106.1 35a1 1 0 1 0 0-2 1 1 0 0 0 0 2Zm35.4 0a1 1 0 1 0 0-2 1 1 0 0 0 0 2Zm35.4 0a1 1 0 1 0 0-2 1 1 0 0 0 0 2Zm35.3 0a1 1 0 1 0 0-2 1 1 0 0 0 0 2ZM291.6 432a1 1 0 1 0 0-2 1 1 0 0 0 0 2Zm35.4.5a1 1 0 1 0 0-2 1 1 0 0 0 0 2Zm35.4 0a1 1 0 1 0 0-2 1 1 0 0 0 0 2Zm35.4 0a1 1 0 1 0 0-2 1 1 0 0 0 0 2Zm35.3 0a1 1 0 1 0 0-2 1 1 0 0 0 0 2ZM291.6 467a1 1 0 1 0 0-2 1 1 0 0 0 0 2Zm35.4.5a1 1 0 1 0 0-2 1 1 0 0 0 0 2Zm35.4 0a1 1 0 1 0 0-2 1 1 0 0 0 0 2Zm35.4 0a1 1 0 1 0 0-2 1 1 0 0 0 0 2Zm35.3 0a1 1 0 1 0 0-2 1 1 0 0 0 0 2ZM291.6 502a1 1 0 1 0 0-2 1 1 0 0 0 0 2Zm35.4.5a1 1 0 1 0 0-2 1 1 0 0 0 0 2Zm35.4 0a1 1 0 1 0 0-2 1 1 0 0 0 0 2Zm35.4 0a1 1 0 1 0 0-2 1 1 0 0 0 0 2Zm35.3 0a1 1 0 1 0 0-2 1 1 0 0 0 0 2ZM291.6 537a1 1 0 1 0 0-2 1 1 0 0 0 0 2Zm35.4.5a1 1 0 1 0 0-2 1 1 0 0 0 0 2Zm35.4 0a1 1 0 1 0 0-2 1 1 0 0 0 0 2Zm35.4 0a1 1 0 1 0 0-2 1 1 0 0 0 0 2Zm35.3 0a1 1 0 1 0 0-2 1 1 0 0 0 0 2ZM291.6 712a1 1 0 1 0 0-2 1 1 0 0 0 0 2Zm35.4.5a1 1 0 1 0 0-2 1 1 0 0 0 0 2Zm35.4 0a1 1 0 1 0 0-2 1 1 0 0 0 0 2Zm35.4 0a1 1 0 1 0 0-2 1 1 0 0 0 0 2Zm35.3 0a1 1 0 1 0 0-2 1 1 0 0 0 0 2ZM291.6 747a1 1 0 1 0 0-2 1 1 0 0 0 0 2Zm35.4.5a1 1 0 1 0 0-2 1 1 0 0 0 0 2Zm35.4 0a1 1 0 1 0 0-2 1 1 0 0 0 0 2Zm35.4 0a1 1 0 1 0 0-2 1 1 0 0 0 0 2Zm35.3 0a1 1 0 1 0 0-2 1 1 0 0 0 0 2ZM291.6 782a1 1 0 1 0 0-2 1 1 0 0 0 0 2Zm35.4.5a1 1 0 1 0 0-2 1 1 0 0 0 0 2Zm35.4 0a1 1 0 1 0 0-2 1 1 0 0 0 0 2Zm35.4 0a1 1 0 1 0 0-2 1 1 0 0 0 0 2Zm35.3 0a1 1 0 1 0 0-2 1 1 0 0 0 0 2ZM291.6 817a1 1 0 1 0 0-2 1 1 0 0 0 0 2Zm35.4.5a1 1 0 1 0 0-2 1 1 0 0 0 0 2Zm35.4 0a1 1 0 1 0 0-2 1 1 0 0 0 0 2Zm35.4 0a1 1 0 1 0 0-2 1 1 0 0 0 0 2Zm35.3 0a1 1 0 1 0 0-2 1 1 0 0 0 0 2ZM291.6 572a1 1 0 1 0 0-2 1 1 0 0 0 0 2Zm35.4.5a1 1 0 1 0 0-2 1 1 0 0 0 0 2Zm35.4 0a1 1 0 1 0 0-2 1 1 0 0 0 0 2Zm35.4 0a1 1 0 1 0 0-2 1 1 0 0 0 0 2Zm35.3 0a1 1 0 1 0 0-2 1 1 0 0 0 0 2ZM291.6 607a1 1 0 1 0 0-2 1 1 0 0 0 0 2Zm35.4.5a1 1 0 1 0 0-2 1 1 0 0 0 0 2Zm35.4 0a1 1 0 1 0 0-2 1 1 0 0 0 0 2Zm35.4 0a1 1 0 1 0 0-2 1 1 0 0 0 0 2Zm35.3 0a1 1 0 1 0 0-2 1 1 0 0 0 0 2ZM291.6 642a1 1 0 1 0 0-2 1 1 0 0 0 0 2Zm35.4.5a1 1 0 1 0 0-2 1 1 0 0 0 0 2Zm35.4 0a1 1 0 1 0 0-2 1 1 0 0 0 0 2Zm35.4 0a1 1 0 1 0 0-2 1 1 0 0 0 0 2Zm35.3 0a1 1 0 1 0 0-2 1 1 0 0 0 0 2ZM291.6 677a1 1 0 1 0 0-2 1 1 0 0 0 0 2Zm35.4.5a1 1 0 1 0 0-2 1 1 0 0 0 0 2Zm35.4 0a1 1 0 1 0 0-2 1 1 0 0 0 0 2Zm35.4 0a1 1 0 1 0 0-2 1 1 0 0 0 0 2Zm35.3 0a1 1 0 1 0 0-2 1 1 0 0 0 0 2Zm35.9-245a1 1 0 1 0 0-2 1 1 0 0 0 0 2Zm35.4 0a1 1 0 1 0 0-2 1 1 0 0 0 0 2Zm35.4 0a1 1 0 1 0 0-2 1 1 0 0 0 0 2Zm35.3 0a1 1 0 1 0 0-2 1 1 0 0 0 0 2Zm-106.1 35a1 1 0 1 0 0-2 1 1 0 0 0 0 2Zm35.4 0a1 1 0 1 0 0-2 1 1 0 0 0 0 2Zm35.4 0a1 1 0 1 0 0-2 1 1 0 0 0 0 2Zm35.3 0a1 1 0 1 0 0-2 1 1 0 0 0 0 2Zm-106.1 35a1 1 0 1 0 0-2 1 1 0 0 0 0 2Zm35.4 0a1 1 0 1 0 0-2 1 1 0 0 0 0 2Zm35.4 0a1 1 0 1 0 0-2 1 1 0 0 0 0 2Zm35.3 0a1 1 0 1 0 0-2 1 1 0 0 0 0 2Zm-106.1 35a1 1 0 1 0 0-2 1 1 0 0 0 0 2Zm35.4 0a1 1 0 1 0 0-2 1 1 0 0 0 0 2Zm35.4 0a1 1 0 1 0 0-2 1 1 0 0 0 0 2Zm35.3 0a1 1 0 1 0 0-2 1 1 0 0 0 0 2ZM469 712.5a1 1 0 1 0 0-2 1 1 0 0 0 0 2Zm35.4 0a1 1 0 1 0 0-2 1 1 0 0 0 0 2Zm35.4 0a1 1 0 1 0 0-2 1 1 0 0 0 0 2Zm35.3 0a1 1 0 1 0 0-2 1 1 0 0 0 0 2Zm-106.1 35a1 1 0 1 0 0-2 1 1 0 0 0 0 2Zm35.4 0a1 1 0 1 0 0-2 1 1 0 0 0 0 2Zm35.4 0a1 1 0 1 0 0-2 1 1 0 0 0 0 2Zm35.3 0a1 1 0 1 0 0-2 1 1 0 0 0 0 2Zm-106.1 35a1 1 0 1 0 0-2 1 1 0 0 0 0 2Zm35.4 0a1 1 0 1 0 0-2 1 1 0 0 0 0 2Zm35.4 0a1 1 0 1 0 0-2 1 1 0 0 0 0 2Zm35.3 0a1 1 0 1 0 0-2 1 1 0 0 0 0 2Zm-106.1 35a1 1 0 1 0 0-2 1 1 0 0 0 0 2Zm35.4 0a1 1 0 1 0 0-2 1 1 0 0 0 0 2Zm35.4 0a1 1 0 1 0 0-2 1 1 0 0 0 0 2Zm35.3 0a1 1 0 1 0 0-2 1 1 0 0 0 0 2ZM469 572.5a1 1 0 1 0 0-2 1 1 0 0 0 0 2Zm35.4 0a1 1 0 1 0 0-2 1 1 0 0 0 0 2Zm35.4 0a1 1 0 1 0 0-2 1 1 0 0 0 0 2Zm35.3 0a1 1 0 1 0 0-2 1 1 0 0 0 0 2Zm-106.1 35a1 1 0 1 0 0-2 1 1 0 0 0 0 2Zm35.4 0a1 1 0 1 0 0-2 1 1 0 0 0 0 2Zm35.4 0a1 1 0 1 0 0-2 1 1 0 0 0 0 2Zm35.3 0a1 1 0 1 0 0-2 1 1 0 0 0 0 2Zm-106.1 35a1 1 0 1 0 0-2 1 1 0 0 0 0 2Zm35.4 0a1 1 0 1 0 0-2 1 1 0 0 0 0 2Zm35.4 0a1 1 0 1 0 0-2 1 1 0 0 0 0 2Zm35.3 0a1 1 0 1 0 0-2 1 1 0 0 0 0 2Zm-106.1 35a1 1 0 1 0 0-2 1 1 0 0 0 0 2Zm35.4 0a1 1 0 1 0 0-2 1 1 0 0 0 0 2Zm35.4 0a1 1 0 1 0 0-2 1 1 0 0 0 0 2Zm35.3 0a1 1 0 1 0 0-2 1 1 0 0 0 0 2Zm35.9-245a1 1 0 1 0 0-2 1 1 0 0 0 0 2Zm35.4 0a1 1 0 1 0 0-2 1 1 0 0 0 0 2Zm35.4 0a1 1 0 1 0 0-2 1 1 0 0 0 0 2Zm35.3 0a1 1 0 1 0 0-2 1 1 0 0 0 0 2Zm-106.1 35a1 1 0 1 0 0-2 1 1 0 0 0 0 2Zm35.4 0a1 1 0 1 0 0-2 1 1 0 0 0 0 2Zm35.4 0a1 1 0 1 0 0-2 1 1 0 0 0 0 2Zm35.3 0a1 1 0 1 0 0-2 1 1 0 0 0 0 2Zm-106.1 35a1 1 0 1 0 0-2 1 1 0 0 0 0 2Zm35.4 0a1 1 0 1 0 0-2 1 1 0 0 0 0 2Zm35.4 0a1 1 0 1 0 0-2 1 1 0 0 0 0 2Zm35.3 0a1 1 0 1 0 0-2 1 1 0 0 0 0 2Zm-106.1 35a1 1 0 1 0 0-2 1 1 0 0 0 0 2Zm35.4 0a1 1 0 1 0 0-2 1 1 0 0 0 0 2Zm35.4 0a1 1 0 1 0 0-2 1 1 0 0 0 0 2Zm35.3 0a1 1 0 1 0 0-2 1 1 0 0 0 0 2ZM611 712.5a1 1 0 1 0 0-2 1 1 0 0 0 0 2Zm35.4 0a1 1 0 1 0 0-2 1 1 0 0 0 0 2Zm35.4 0a1 1 0 1 0 0-2 1 1 0 0 0 0 2Zm35.3 0a1 1 0 1 0 0-2 1 1 0 0 0 0 2Zm-106.1 35a1 1 0 1 0 0-2 1 1 0 0 0 0 2Zm35.4 0a1 1 0 1 0 0-2 1 1 0 0 0 0 2Zm35.4 0a1 1 0 1 0 0-2 1 1 0 0 0 0 2Zm35.3 0a1 1 0 1 0 0-2 1 1 0 0 0 0 2Zm-106.1 35a1 1 0 1 0 0-2 1 1 0 0 0 0 2Zm35.4 0a1 1 0 1 0 0-2 1 1 0 0 0 0 2Zm35.4 0a1 1 0 1 0 0-2 1 1 0 0 0 0 2Zm35.3 0a1 1 0 1 0 0-2 1 1 0 0 0 0 2Zm-106.1 35a1 1 0 1 0 0-2 1 1 0 0 0 0 2Zm35.4 0a1 1 0 1 0 0-2 1 1 0 0 0 0 2Zm35.4 0a1 1 0 1 0 0-2 1 1 0 0 0 0 2Zm35.3 0a1 1 0 1 0 0-2 1 1 0 0 0 0 2ZM611 572.5a1 1 0 1 0 0-2 1 1 0 0 0 0 2Zm35.4 0a1 1 0 1 0 0-2 1 1 0 0 0 0 2Zm35.4 0a1 1 0 1 0 0-2 1 1 0 0 0 0 2Zm35.3 0a1 1 0 1 0 0-2 1 1 0 0 0 0 2Zm-106.1 35a1 1 0 1 0 0-2 1 1 0 0 0 0 2Zm35.4 0a1 1 0 1 0 0-2 1 1 0 0 0 0 2Zm35.4 0a1 1 0 1 0 0-2 1 1 0 0 0 0 2Zm35.3 0a1 1 0 1 0 0-2 1 1 0 0 0 0 2Zm-106.1 35a1 1 0 1 0 0-2 1 1 0 0 0 0 2Zm35.4 0a1 1 0 1 0 0-2 1 1 0 0 0 0 2Zm35.4 0a1 1 0 1 0 0-2 1 1 0 0 0 0 2Zm35.3 0a1 1 0 1 0 0-2 1 1 0 0 0 0 2Zm-106.1 35a1 1 0 1 0 0-2 1 1 0 0 0 0 2Zm35.4 0a1 1 0 1 0 0-2 1 1 0 0 0 0 2Zm35.4 0a1 1 0 1 0 0-2 1 1 0 0 0 0 2Zm35.3 0a1 1 0 1 0 0-2 1 1 0 0 0 0 2Zm35.9-245a1 1 0 1 0 0-2 1 1 0 0 0 0 2Zm35.4 0a1 1 0 1 0 0-2 1 1 0 0 0 0 2Zm35.4 0a1 1 0 1 0 0-2 1 1 0 0 0 0 2Zm35.3 0a1 1 0 1 0 0-2 1 1 0 0 0 0 2Zm-106.1 35a1 1 0 1 0 0-2 1 1 0 0 0 0 2Zm35.4 0a1 1 0 1 0 0-2 1 1 0 0 0 0 2Zm35.4 0a1 1 0 1 0 0-2 1 1 0 0 0 0 2Zm35.3 0a1 1 0 1 0 0-2 1 1 0 0 0 0 2Zm-106.1 35a1 1 0 1 0 0-2 1 1 0 0 0 0 2Zm35.4 0a1 1 0 1 0 0-2 1 1 0 0 0 0 2Zm35.4 0a1 1 0 1 0 0-2 1 1 0 0 0 0 2Zm35.3 0a1 1 0 1 0 0-2 1 1 0 0 0 0 2Zm-106.1 35a1 1 0 1 0 0-2 1 1 0 0 0 0 2Zm35.4 0a1 1 0 1 0 0-2 1 1 0 0 0 0 2Zm35.4 0a1 1 0 1 0 0-2 1 1 0 0 0 0 2Zm35.3 0a1 1 0 1 0 0-2 1 1 0 0 0 0 2ZM753 712.5a1 1 0 1 0 0-2 1 1 0 0 0 0 2Zm35.4 0a1 1 0 1 0 0-2 1 1 0 0 0 0 2Zm35.4 0a1 1 0 1 0 0-2 1 1 0 0 0 0 2Zm35.3 0a1 1 0 1 0 0-2 1 1 0 0 0 0 2Zm-106.1 35a1 1 0 1 0 0-2 1 1 0 0 0 0 2Zm35.4 0a1 1 0 1 0 0-2 1 1 0 0 0 0 2Zm35.4 0a1 1 0 1 0 0-2 1 1 0 0 0 0 2Zm35.3 0a1 1 0 1 0 0-2 1 1 0 0 0 0 2Zm-106.1 35a1 1 0 1 0 0-2 1 1 0 0 0 0 2Zm35.4 0a1 1 0 1 0 0-2 1 1 0 0 0 0 2Zm35.4 0a1 1 0 1 0 0-2 1 1 0 0 0 0 2Zm35.3 0a1 1 0 1 0 0-2 1 1 0 0 0 0 2Zm-106.1 35a1 1 0 1 0 0-2 1 1 0 0 0 0 2Zm35.4 0a1 1 0 1 0 0-2 1 1 0 0 0 0 2Zm35.4 0a1 1 0 1 0 0-2 1 1 0 0 0 0 2Zm35.3 0a1 1 0 1 0 0-2 1 1 0 0 0 0 2ZM753 572.5a1 1 0 1 0 0-2 1 1 0 0 0 0 2Zm35.4 0a1 1 0 1 0 0-2 1 1 0 0 0 0 2Zm35.4 0a1 1 0 1 0 0-2 1 1 0 0 0 0 2Zm35.3 0a1 1 0 1 0 0-2 1 1 0 0 0 0 2Zm-106.1 35a1 1 0 1 0 0-2 1 1 0 0 0 0 2Zm35.4 0a1 1 0 1 0 0-2 1 1 0 0 0 0 2Zm35.4 0a1 1 0 1 0 0-2 1 1 0 0 0 0 2Zm35.3 0a1 1 0 1 0 0-2 1 1 0 0 0 0 2Zm-106.1 35a1 1 0 1 0 0-2 1 1 0 0 0 0 2Zm35.4 0a1 1 0 1 0 0-2 1 1 0 0 0 0 2Zm35.4 0a1 1 0 1 0 0-2 1 1 0 0 0 0 2Zm35.3 0a1 1 0 1 0 0-2 1 1 0 0 0 0 2Zm-106.1 35a1 1 0 1 0 0-2 1 1 0 0 0 0 2Zm35.4 0a1 1 0 1 0 0-2 1 1 0 0 0 0 2Zm35.4 0a1 1 0 1 0 0-2 1 1 0 0 0 0 2Zm35.3 0a1 1 0 1 0 0-2 1 1 0 0 0 0 2ZM291.6 853a1 1 0 1 0 0-2 1 1 0 0 0 0 2Zm35.4.5a1 1 0 1 0 0-2 1 1 0 0 0 0 2Zm35.4 0a1 1 0 1 0 0-2 1 1 0 0 0 0 2Zm35.4 0a1 1 0 1 0 0-2 1 1 0 0 0 0 2Zm35.3 0a1 1 0 1 0 0-2 1 1 0 0 0 0 2ZM291.6 888a1 1 0 1 0 0-2 1 1 0 0 0 0 2Zm35.4.5a1 1 0 1 0 0-2 1 1 0 0 0 0 2Zm35.4 0a1 1 0 1 0 0-2 1 1 0 0 0 0 2Zm35.4 0a1 1 0 1 0 0-2 1 1 0 0 0 0 2Zm35.3 0a1 1 0 1 0 0-2 1 1 0 0 0 0 2ZM291.6 923a1 1 0 1 0 0-2 1 1 0 0 0 0 2Zm35.4.5a1 1 0 1 0 0-2 1 1 0 0 0 0 2Zm35.4 0a1 1 0 1 0 0-2 1 1 0 0 0 0 2Zm35.4 0a1 1 0 1 0 0-2 1 1 0 0 0 0 2Zm35.3 0a1 1 0 1 0 0-2 1 1 0 0 0 0 2ZM291.6 958a1 1 0 1 0 0-2 1 1 0 0 0 0 2Zm35.4.5a1 1 0 1 0 0-2 1 1 0 0 0 0 2Zm35.4 0a1 1 0 1 0 0-2 1 1 0 0 0 0 2Zm35.4 0a1 1 0 1 0 0-2 1 1 0 0 0 0 2Zm35.3 0a1 1 0 1 0 0-2 1 1 0 0 0 0 2ZM291.6 993a1 1 0 1 0 0-2 1 1 0 0 0 0 2Zm35.4.5a1 1 0 1 0 0-2 1 1 0 0 0 0 2Zm35.4 0a1 1 0 1 0 0-2 1 1 0 0 0 0 2Zm35.4 0a1 1 0 1 0 0-2 1 1 0 0 0 0 2Zm35.3 0a1 1 0 1 0 0-2 1 1 0 0 0 0 2ZM291.6 1028a1 1 0 1 0 0-2 1 1 0 0 0 0 2Zm35.4.5a1 1 0 1 0 0-2 1 1 0 0 0 0 2Zm35.4 0a1 1 0 1 0 0-2 1 1 0 0 0 0 2Zm35.4 0a1 1 0 1 0 0-2 1 1 0 0 0 0 2Zm35.3 0a1 1 0 1 0 0-2 1 1 0 0 0 0 2ZM291.6 1063a1 1 0 1 0 0-2 1 1 0 0 0 0 2Zm35.4.5a1 1 0 1 0 0-2 1 1 0 0 0 0 2Zm35.4 0a1 1 0 1 0 0-2 1 1 0 0 0 0 2Zm35.4 0a1 1 0 1 0 0-2 1 1 0 0 0 0 2Zm35.3 0a1 1 0 1 0 0-2 1 1 0 0 0 0 2Zm35.9-210a1 1 0 1 0 0-2 1 1 0 0 0 0 2Zm35.4 0a1 1 0 1 0 0-2 1 1 0 0 0 0 2Zm35.4 0a1 1 0 1 0 0-2 1 1 0 0 0 0 2Zm35.3 0a1 1 0 1 0 0-2 1 1 0 0 0 0 2Zm-106.1 35a1 1 0 1 0 0-2 1 1 0 0 0 0 2Zm35.4 0a1 1 0 1 0 0-2 1 1 0 0 0 0 2Zm35.4 0a1 1 0 1 0 0-2 1 1 0 0 0 0 2Zm35.3 0a1 1 0 1 0 0-2 1 1 0 0 0 0 2Zm-106.1 35a1 1 0 1 0 0-2 1 1 0 0 0 0 2Zm35.4 0a1 1 0 1 0 0-2 1 1 0 0 0 0 2Zm35.4 0a1 1 0 1 0 0-2 1 1 0 0 0 0 2Zm35.3 0a1 1 0 1 0 0-2 1 1 0 0 0 0 2Zm-106.1 35a1 1 0 1 0 0-2 1 1 0 0 0 0 2Zm35.4 0a1 1 0 1 0 0-2 1 1 0 0 0 0 2Zm35.4 0a1 1 0 1 0 0-2 1 1 0 0 0 0 2Zm35.3 0a1 1 0 1 0 0-2 1 1 0 0 0 0 2Zm-106.1 35a1 1 0 1 0 0-2 1 1 0 0 0 0 2Zm35.4 0a1 1 0 1 0 0-2 1 1 0 0 0 0 2Zm35.4 0a1 1 0 1 0 0-2 1 1 0 0 0 0 2Zm35.3 0a1 1 0 1 0 0-2 1 1 0 0 0 0 2Zm-106.1 35a1 1 0 1 0 0-2 1 1 0 0 0 0 2Zm35.4 0a1 1 0 1 0 0-2 1 1 0 0 0 0 2Zm35.4 0a1 1 0 1 0 0-2 1 1 0 0 0 0 2Zm35.3 0a1 1 0 1 0 0-2 1 1 0 0 0 0 2Zm-106.1 35a1 1 0 1 0 0-2 1 1 0 0 0 0 2Zm35.4 0a1 1 0 1 0 0-2 1 1 0 0 0 0 2Zm35.4 0a1 1 0 1 0 0-2 1 1 0 0 0 0 2Zm35.3 0a1 1 0 1 0 0-2 1 1 0 0 0 0 2Zm35.9-210a1 1 0 1 0 0-2 1 1 0 0 0 0 2Zm35.4 0a1 1 0 1 0 0-2 1 1 0 0 0 0 2Zm35.4 0a1 1 0 1 0 0-2 1 1 0 0 0 0 2Zm35.3 0a1 1 0 1 0 0-2 1 1 0 0 0 0 2Zm-106.1 35a1 1 0 1 0 0-2 1 1 0 0 0 0 2Zm35.4 0a1 1 0 1 0 0-2 1 1 0 0 0 0 2Zm35.4 0a1 1 0 1 0 0-2 1 1 0 0 0 0 2Zm35.3 0a1 1 0 1 0 0-2 1 1 0 0 0 0 2Zm-106.1 35a1 1 0 1 0 0-2 1 1 0 0 0 0 2Zm35.4 0a1 1 0 1 0 0-2 1 1 0 0 0 0 2Zm35.4 0a1 1 0 1 0 0-2 1 1 0 0 0 0 2Zm35.3 0a1 1 0 1 0 0-2 1 1 0 0 0 0 2Zm-106.1 35a1 1 0 1 0 0-2 1 1 0 0 0 0 2Zm35.4 0a1 1 0 1 0 0-2 1 1 0 0 0 0 2Zm35.4 0a1 1 0 1 0 0-2 1 1 0 0 0 0 2Zm35.3 0a1 1 0 1 0 0-2 1 1 0 0 0 0 2Zm-106.1 35a1 1 0 1 0 0-2 1 1 0 0 0 0 2Zm35.4 0a1 1 0 1 0 0-2 1 1 0 0 0 0 2Zm35.4 0a1 1 0 1 0 0-2 1 1 0 0 0 0 2Zm35.3 0a1 1 0 1 0 0-2 1 1 0 0 0 0 2Zm-106.1 35a1 1 0 1 0 0-2 1 1 0 0 0 0 2Zm35.4 0a1 1 0 1 0 0-2 1 1 0 0 0 0 2Zm35.4 0a1 1 0 1 0 0-2 1 1 0 0 0 0 2Zm35.3 0a1 1 0 1 0 0-2 1 1 0 0 0 0 2Zm-106.1 35a1 1 0 1 0 0-2 1 1 0 0 0 0 2Zm35.4 0a1 1 0 1 0 0-2 1 1 0 0 0 0 2Zm35.4 0a1 1 0 1 0 0-2 1 1 0 0 0 0 2Zm35.3 0a1 1 0 1 0 0-2 1 1 0 0 0 0 2Zm35.9-210a1 1 0 1 0 0-2 1 1 0 0 0 0 2Zm35.4 0a1 1 0 1 0 0-2 1 1 0 0 0 0 2Zm35.4 0a1 1 0 1 0 0-2 1 1 0 0 0 0 2Zm35.3 0a1 1 0 1 0 0-2 1 1 0 0 0 0 2Zm-106.1 35a1 1 0 1 0 0-2 1 1 0 0 0 0 2Zm35.4 0a1 1 0 1 0 0-2 1 1 0 0 0 0 2Zm35.4 0a1 1 0 1 0 0-2 1 1 0 0 0 0 2Zm35.3 0a1 1 0 1 0 0-2 1 1 0 0 0 0 2Zm-106.1 35a1 1 0 1 0 0-2 1 1 0 0 0 0 2Zm35.4 0a1 1 0 1 0 0-2 1 1 0 0 0 0 2Zm35.4 0a1 1 0 1 0 0-2 1 1 0 0 0 0 2Zm35.3 0a1 1 0 1 0 0-2 1 1 0 0 0 0 2Zm-106.1 35a1 1 0 1 0 0-2 1 1 0 0 0 0 2Zm35.4 0a1 1 0 1 0 0-2 1 1 0 0 0 0 2Zm35.4 0a1 1 0 1 0 0-2 1 1 0 0 0 0 2Zm35.3 0a1 1 0 1 0 0-2 1 1 0 0 0 0 2Zm-106.1 35a1 1 0 1 0 0-2 1 1 0 0 0 0 2Zm35.4 0a1 1 0 1 0 0-2 1 1 0 0 0 0 2Zm35.4 0a1 1 0 1 0 0-2 1 1 0 0 0 0 2Zm35.3 0a1 1 0 1 0 0-2 1 1 0 0 0 0 2Zm-106.1 35a1 1 0 1 0 0-2 1 1 0 0 0 0 2Zm35.4 0a1 1 0 1 0 0-2 1 1 0 0 0 0 2Zm35.4 0a1 1 0 1 0 0-2 1 1 0 0 0 0 2Zm35.3 0a1 1 0 1 0 0-2 1 1 0 0 0 0 2Zm-106.1 35a1 1 0 1 0 0-2 1 1 0 0 0 0 2Zm35.4 0a1 1 0 1 0 0-2 1 1 0 0 0 0 2Zm35.4 0a1 1 0 1 0 0-2 1 1 0 0 0 0 2Zm35.3 0a1 1 0 1 0 0-2 1 1 0 0 0 0 2ZM10 12.5a1 1 0 1 0 0-2 1 1 0 0 0 0 2Zm35.4 0a1 1 0 1 0 0-2 1 1 0 0 0 0 2Zm35.4 0a1 1 0 1 0 0-2 1 1 0 0 0 0 2Zm35.3 0a1 1 0 1 0 0-2 1 1 0 0 0 0 2ZM10 47.5a1 1 0 1 0 0-2 1 1 0 0 0 0 2Zm35.4 0a1 1 0 1 0 0-2 1 1 0 0 0 0 2Zm35.4 0a1 1 0 1 0 0-2 1 1 0 0 0 0 2Zm35.3 0a1 1 0 1 0 0-2 1 1 0 0 0 0 2ZM10 82.5a1 1 0 1 0 0-2 1 1 0 0 0 0 2Zm35.4 0a1 1 0 1 0 0-2 1 1 0 0 0 0 2Zm35.4 0a1 1 0 1 0 0-2 1 1 0 0 0 0 2Zm35.3 0a1 1 0 1 0 0-2 1 1 0 0 0 0 2ZM10 117.5a1 1 0 1 0 0-2 1 1 0 0 0 0 2Zm35.4 0a1 1 0 1 0 0-2 1 1 0 0 0 0 2Zm35.4 0a1 1 0 1 0 0-2 1 1 0 0 0 0 2Zm35.3 0a1 1 0 1 0 0-2 1 1 0 0 0 0 2ZM10 292.5a1 1 0 1 0 0-2 1 1 0 0 0 0 2Zm35.4 0a1 1 0 1 0 0-2 1 1 0 0 0 0 2Zm35.4 0a1 1 0 1 0 0-2 1 1 0 0 0 0 2Zm35.3 0a1 1 0 1 0 0-2 1 1 0 0 0 0 2ZM10 327.5a1 1 0 1 0 0-2 1 1 0 0 0 0 2Zm35.4 0a1 1 0 1 0 0-2 1 1 0 0 0 0 2Zm35.4 0a1 1 0 1 0 0-2 1 1 0 0 0 0 2Zm35.3 0a1 1 0 1 0 0-2 1 1 0 0 0 0 2ZM10 362.5a1 1 0 1 0 0-2 1 1 0 0 0 0 2Zm35.4 0a1 1 0 1 0 0-2 1 1 0 0 0 0 2Zm35.4 0a1 1 0 1 0 0-2 1 1 0 0 0 0 2Zm35.3 0a1 1 0 1 0 0-2 1 1 0 0 0 0 2ZM10 397.5a1 1 0 1 0 0-2 1 1 0 0 0 0 2Zm35.4 0a1 1 0 1 0 0-2 1 1 0 0 0 0 2Zm35.4 0a1 1 0 1 0 0-2 1 1 0 0 0 0 2Zm35.3 0a1 1 0 1 0 0-2 1 1 0 0 0 0 2ZM10 152.5a1 1 0 1 0 0-2 1 1 0 0 0 0 2Zm35.4 0a1 1 0 1 0 0-2 1 1 0 0 0 0 2Zm35.4 0a1 1 0 1 0 0-2 1 1 0 0 0 0 2Zm35.3 0a1 1 0 1 0 0-2 1 1 0 0 0 0 2ZM10 187.5a1 1 0 1 0 0-2 1 1 0 0 0 0 2Zm35.4 0a1 1 0 1 0 0-2 1 1 0 0 0 0 2Zm35.4 0a1 1 0 1 0 0-2 1 1 0 0 0 0 2Zm35.3 0a1 1 0 1 0 0-2 1 1 0 0 0 0 2ZM10 222.5a1 1 0 1 0 0-2 1 1 0 0 0 0 2Zm35.4 0a1 1 0 1 0 0-2 1 1 0 0 0 0 2Zm35.4 0a1 1 0 1 0 0-2 1 1 0 0 0 0 2Zm35.3 0a1 1 0 1 0 0-2 1 1 0 0 0 0 2ZM10 257.5a1 1 0 1 0 0-2 1 1 0 0 0 0 2Zm35.4 0a1 1 0 1 0 0-2 1 1 0 0 0 0 2Zm35.4 0a1 1 0 1 0 0-2 1 1 0 0 0 0 2Zm35.3 0a1 1 0 1 0 0-2 1 1 0 0 0 0 2Zm35.9-245a1 1 0 1 0 0-2 1 1 0 0 0 0 2Zm35.4 0a1 1 0 1 0 0-2 1 1 0 0 0 0 2Zm35.4 0a1 1 0 1 0 0-2 1 1 0 0 0 0 2Zm35.3 0a1 1 0 1 0 0-2 1 1 0 0 0 0 2ZM152 47.5a1 1 0 1 0 0-2 1 1 0 0 0 0 2Zm35.4 0a1 1 0 1 0 0-2 1 1 0 0 0 0 2Zm35.4 0a1 1 0 1 0 0-2 1 1 0 0 0 0 2Zm35.3 0a1 1 0 1 0 0-2 1 1 0 0 0 0 2ZM152 82.5a1 1 0 1 0 0-2 1 1 0 0 0 0 2Zm35.4 0a1 1 0 1 0 0-2 1 1 0 0 0 0 2Zm35.4 0a1 1 0 1 0 0-2 1 1 0 0 0 0 2Zm35.3 0a1 1 0 1 0 0-2 1 1 0 0 0 0 2Zm-106.1 35a1 1 0 1 0 0-2 1 1 0 0 0 0 2Zm35.4 0a1 1 0 1 0 0-2 1 1 0 0 0 0 2Zm35.4 0a1 1 0 1 0 0-2 1 1 0 0 0 0 2Zm35.3 0a1 1 0 1 0 0-2 1 1 0 0 0 0 2ZM152 292.5a1 1 0 1 0 0-2 1 1 0 0 0 0 2Zm35.4 0a1 1 0 1 0 0-2 1 1 0 0 0 0 2Zm35.4 0a1 1 0 1 0 0-2 1 1 0 0 0 0 2Zm35.3 0a1 1 0 1 0 0-2 1 1 0 0 0 0 2Zm-106.1 35a1 1 0 1 0 0-2 1 1 0 0 0 0 2Zm35.4 0a1 1 0 1 0 0-2 1 1 0 0 0 0 2Zm35.4 0a1 1 0 1 0 0-2 1 1 0 0 0 0 2Zm35.3 0a1 1 0 1 0 0-2 1 1 0 0 0 0 2Zm-106.1 35a1 1 0 1 0 0-2 1 1 0 0 0 0 2Zm35.4 0a1 1 0 1 0 0-2 1 1 0 0 0 0 2Zm35.4 0a1 1 0 1 0 0-2 1 1 0 0 0 0 2Zm35.3 0a1 1 0 1 0 0-2 1 1 0 0 0 0 2Zm-106.1 35a1 1 0 1 0 0-2 1 1 0 0 0 0 2Zm35.4 0a1 1 0 1 0 0-2 1 1 0 0 0 0 2Zm35.4 0a1 1 0 1 0 0-2 1 1 0 0 0 0 2Zm35.3 0a1 1 0 1 0 0-2 1 1 0 0 0 0 2ZM152 152.5a1 1 0 1 0 0-2 1 1 0 0 0 0 2Zm35.4 0a1 1 0 1 0 0-2 1 1 0 0 0 0 2Zm35.4 0a1 1 0 1 0 0-2 1 1 0 0 0 0 2Zm35.3 0a1 1 0 1 0 0-2 1 1 0 0 0 0 2Zm-106.1 35a1 1 0 1 0 0-2 1 1 0 0 0 0 2Zm35.4 0a1 1 0 1 0 0-2 1 1 0 0 0 0 2Zm35.4 0a1 1 0 1 0 0-2 1 1 0 0 0 0 2Zm35.3 0a1 1 0 1 0 0-2 1 1 0 0 0 0 2Zm-106.1 35a1 1 0 1 0 0-2 1 1 0 0 0 0 2Zm35.4 0a1 1 0 1 0 0-2 1 1 0 0 0 0 2Zm35.4 0a1 1 0 1 0 0-2 1 1 0 0 0 0 2Zm35.3 0a1 1 0 1 0 0-2 1 1 0 0 0 0 2Zm-106.1 35a1 1 0 1 0 0-2 1 1 0 0 0 0 2Zm35.4 0a1 1 0 1 0 0-2 1 1 0 0 0 0 2Zm35.4 0a1 1 0 1 0 0-2 1 1 0 0 0 0 2Zm35.3 0a1 1 0 1 0 0-2 1 1 0 0 0 0 2ZM10 432.5a1 1 0 1 0 0-2 1 1 0 0 0 0 2Zm35.4 0a1 1 0 1 0 0-2 1 1 0 0 0 0 2Zm35.4 0a1 1 0 1 0 0-2 1 1 0 0 0 0 2Zm35.3 0a1 1 0 1 0 0-2 1 1 0 0 0 0 2ZM10 467.5a1 1 0 1 0 0-2 1 1 0 0 0 0 2Zm35.4 0a1 1 0 1 0 0-2 1 1 0 0 0 0 2Zm35.4 0a1 1 0 1 0 0-2 1 1 0 0 0 0 2Zm35.3 0a1 1 0 1 0 0-2 1 1 0 0 0 0 2ZM10 502.5a1 1 0 1 0 0-2 1 1 0 0 0 0 2Zm35.4 0a1 1 0 1 0 0-2 1 1 0 0 0 0 2Zm35.4 0a1 1 0 1 0 0-2 1 1 0 0 0 0 2Zm35.3 0a1 1 0 1 0 0-2 1 1 0 0 0 0 2ZM10 537.5a1 1 0 1 0 0-2 1 1 0 0 0 0 2Zm35.4 0a1 1 0 1 0 0-2 1 1 0 0 0 0 2Zm35.4 0a1 1 0 1 0 0-2 1 1 0 0 0 0 2Zm35.3 0a1 1 0 1 0 0-2 1 1 0 0 0 0 2ZM10 712.5a1 1 0 1 0 0-2 1 1 0 0 0 0 2Zm35.4 0a1 1 0 1 0 0-2 1 1 0 0 0 0 2Zm35.4 0a1 1 0 1 0 0-2 1 1 0 0 0 0 2Zm35.3 0a1 1 0 1 0 0-2 1 1 0 0 0 0 2ZM10 747.5a1 1 0 1 0 0-2 1 1 0 0 0 0 2Zm35.4 0a1 1 0 1 0 0-2 1 1 0 0 0 0 2Zm35.4 0a1 1 0 1 0 0-2 1 1 0 0 0 0 2Zm35.3 0a1 1 0 1 0 0-2 1 1 0 0 0 0 2ZM10 782.5a1 1 0 1 0 0-2 1 1 0 0 0 0 2Zm35.4 0a1 1 0 1 0 0-2 1 1 0 0 0 0 2Zm35.4 0a1 1 0 1 0 0-2 1 1 0 0 0 0 2Zm35.3 0a1 1 0 1 0 0-2 1 1 0 0 0 0 2ZM10 817.5a1 1 0 1 0 0-2 1 1 0 0 0 0 2Zm35.4 0a1 1 0 1 0 0-2 1 1 0 0 0 0 2Zm35.4 0a1 1 0 1 0 0-2 1 1 0 0 0 0 2Zm35.3 0a1 1 0 1 0 0-2 1 1 0 0 0 0 2ZM10 572.5a1 1 0 1 0 0-2 1 1 0 0 0 0 2Zm35.4 0a1 1 0 1 0 0-2 1 1 0 0 0 0 2Zm35.4 0a1 1 0 1 0 0-2 1 1 0 0 0 0 2Zm35.3 0a1 1 0 1 0 0-2 1 1 0 0 0 0 2ZM10 607.5a1 1 0 1 0 0-2 1 1 0 0 0 0 2Zm35.4 0a1 1 0 1 0 0-2 1 1 0 0 0 0 2Zm35.4 0a1 1 0 1 0 0-2 1 1 0 0 0 0 2Zm35.3 0a1 1 0 1 0 0-2 1 1 0 0 0 0 2ZM10 642.5a1 1 0 1 0 0-2 1 1 0 0 0 0 2Zm35.4 0a1 1 0 1 0 0-2 1 1 0 0 0 0 2Zm35.4 0a1 1 0 1 0 0-2 1 1 0 0 0 0 2Zm35.3 0a1 1 0 1 0 0-2 1 1 0 0 0 0 2ZM10 677.5a1 1 0 1 0 0-2 1 1 0 0 0 0 2Zm35.4 0a1 1 0 1 0 0-2 1 1 0 0 0 0 2Zm35.4 0a1 1 0 1 0 0-2 1 1 0 0 0 0 2Zm35.3 0a1 1 0 1 0 0-2 1 1 0 0 0 0 2Zm35.9-245a1 1 0 1 0 0-2 1 1 0 0 0 0 2Zm35.4 0a1 1 0 1 0 0-2 1 1 0 0 0 0 2Zm35.4 0a1 1 0 1 0 0-2 1 1 0 0 0 0 2Zm35.3 0a1 1 0 1 0 0-2 1 1 0 0 0 0 2Zm-106.1 35a1 1 0 1 0 0-2 1 1 0 0 0 0 2Zm35.4 0a1 1 0 1 0 0-2 1 1 0 0 0 0 2Zm35.4 0a1 1 0 1 0 0-2 1 1 0 0 0 0 2Zm35.3 0a1 1 0 1 0 0-2 1 1 0 0 0 0 2Zm-106.1 35a1 1 0 1 0 0-2 1 1 0 0 0 0 2Zm35.4 0a1 1 0 1 0 0-2 1 1 0 0 0 0 2Zm35.4 0a1 1 0 1 0 0-2 1 1 0 0 0 0 2Zm35.3 0a1 1 0 1 0 0-2 1 1 0 0 0 0 2Zm-106.1 35a1 1 0 1 0 0-2 1 1 0 0 0 0 2Zm35.4 0a1 1 0 1 0 0-2 1 1 0 0 0 0 2Zm35.4 0a1 1 0 1 0 0-2 1 1 0 0 0 0 2Zm35.3 0a1 1 0 1 0 0-2 1 1 0 0 0 0 2ZM152 712.5a1 1 0 1 0 0-2 1 1 0 0 0 0 2Zm35.4 0a1 1 0 1 0 0-2 1 1 0 0 0 0 2Zm35.4 0a1 1 0 1 0 0-2 1 1 0 0 0 0 2Zm35.3 0a1 1 0 1 0 0-2 1 1 0 0 0 0 2Zm-106.1 35a1 1 0 1 0 0-2 1 1 0 0 0 0 2Zm35.4 0a1 1 0 1 0 0-2 1 1 0 0 0 0 2Zm35.4 0a1 1 0 1 0 0-2 1 1 0 0 0 0 2Zm35.3 0a1 1 0 1 0 0-2 1 1 0 0 0 0 2Zm-106.1 35a1 1 0 1 0 0-2 1 1 0 0 0 0 2Zm35.4 0a1 1 0 1 0 0-2 1 1 0 0 0 0 2Zm35.4 0a1 1 0 1 0 0-2 1 1 0 0 0 0 2Zm35.3 0a1 1 0 1 0 0-2 1 1 0 0 0 0 2Zm-106.1 35a1 1 0 1 0 0-2 1 1 0 0 0 0 2Zm35.4 0a1 1 0 1 0 0-2 1 1 0 0 0 0 2Zm35.4 0a1 1 0 1 0 0-2 1 1 0 0 0 0 2Zm35.3 0a1 1 0 1 0 0-2 1 1 0 0 0 0 2ZM152 572.5a1 1 0 1 0 0-2 1 1 0 0 0 0 2Zm35.4 0a1 1 0 1 0 0-2 1 1 0 0 0 0 2Zm35.4 0a1 1 0 1 0 0-2 1 1 0 0 0 0 2Zm35.3 0a1 1 0 1 0 0-2 1 1 0 0 0 0 2Zm-106.1 35a1 1 0 1 0 0-2 1 1 0 0 0 0 2Zm35.4 0a1 1 0 1 0 0-2 1 1 0 0 0 0 2Zm35.4 0a1 1 0 1 0 0-2 1 1 0 0 0 0 2Zm35.3 0a1 1 0 1 0 0-2 1 1 0 0 0 0 2Zm-106.1 35a1 1 0 1 0 0-2 1 1 0 0 0 0 2Zm35.4 0a1 1 0 1 0 0-2 1 1 0 0 0 0 2Zm35.4 0a1 1 0 1 0 0-2 1 1 0 0 0 0 2Zm35.3 0a1 1 0 1 0 0-2 1 1 0 0 0 0 2Zm-106.1 35a1 1 0 1 0 0-2 1 1 0 0 0 0 2Zm35.4 0a1 1 0 1 0 0-2 1 1 0 0 0 0 2Zm35.4 0a1 1 0 1 0 0-2 1 1 0 0 0 0 2Zm35.3 0a1 1 0 1 0 0-2 1 1 0 0 0 0 2ZM10 853.5a1 1 0 1 0 0-2 1 1 0 0 0 0 2Zm35.4 0a1 1 0 1 0 0-2 1 1 0 0 0 0 2Zm35.4 0a1 1 0 1 0 0-2 1 1 0 0 0 0 2Zm35.3 0a1 1 0 1 0 0-2 1 1 0 0 0 0 2ZM10 888.5a1 1 0 1 0 0-2 1 1 0 0 0 0 2Zm35.4 0a1 1 0 1 0 0-2 1 1 0 0 0 0 2Zm35.4 0a1 1 0 1 0 0-2 1 1 0 0 0 0 2Zm35.3 0a1 1 0 1 0 0-2 1 1 0 0 0 0 2ZM10 923.5a1 1 0 1 0 0-2 1 1 0 0 0 0 2Zm35.4 0a1 1 0 1 0 0-2 1 1 0 0 0 0 2Zm35.4 0a1 1 0 1 0 0-2 1 1 0 0 0 0 2Zm35.3 0a1 1 0 1 0 0-2 1 1 0 0 0 0 2ZM10 958.5a1 1 0 1 0 0-2 1 1 0 0 0 0 2Zm35.4 0a1 1 0 1 0 0-2 1 1 0 0 0 0 2Zm35.4 0a1 1 0 1 0 0-2 1 1 0 0 0 0 2Zm35.3 0a1 1 0 1 0 0-2 1 1 0 0 0 0 2ZM10 993.5a1 1 0 1 0 0-2 1 1 0 0 0 0 2Zm35.4 0a1 1 0 1 0 0-2 1 1 0 0 0 0 2Zm35.4 0a1 1 0 1 0 0-2 1 1 0 0 0 0 2Zm35.3 0a1 1 0 1 0 0-2 1 1 0 0 0 0 2Zm-106.1 35a1 1 0 1 0 0-2 1 1 0 0 0 0 2Zm35.4 0a1 1 0 1 0 0-2 1 1 0 0 0 0 2Zm35.4 0a1 1 0 1 0 0-2 1 1 0 0 0 0 2Zm35.3 0a1 1 0 1 0 0-2 1 1 0 0 0 0 2Zm-106.1 35a1 1 0 1 0 0-2 1 1 0 0 0 0 2Zm35.4 0a1 1 0 1 0 0-2 1 1 0 0 0 0 2Zm35.4 0a1 1 0 1 0 0-2 1 1 0 0 0 0 2Zm35.3 0a1 1 0 1 0 0-2 1 1 0 0 0 0 2Zm35.9-210a1 1 0 1 0 0-2 1 1 0 0 0 0 2Zm35.4 0a1 1 0 1 0 0-2 1 1 0 0 0 0 2Zm35.4 0a1 1 0 1 0 0-2 1 1 0 0 0 0 2Zm35.3 0a1 1 0 1 0 0-2 1 1 0 0 0 0 2Zm-106.1 35a1 1 0 1 0 0-2 1 1 0 0 0 0 2Zm35.4 0a1 1 0 1 0 0-2 1 1 0 0 0 0 2Zm35.4 0a1 1 0 1 0 0-2 1 1 0 0 0 0 2Zm35.3 0a1 1 0 1 0 0-2 1 1 0 0 0 0 2Zm-106.1 35a1 1 0 1 0 0-2 1 1 0 0 0 0 2Zm35.4 0a1 1 0 1 0 0-2 1 1 0 0 0 0 2Zm35.4 0a1 1 0 1 0 0-2 1 1 0 0 0 0 2Zm35.3 0a1 1 0 1 0 0-2 1 1 0 0 0 0 2Zm-106.1 35a1 1 0 1 0 0-2 1 1 0 0 0 0 2Zm35.4 0a1 1 0 1 0 0-2 1 1 0 0 0 0 2Zm35.4 0a1 1 0 1 0 0-2 1 1 0 0 0 0 2Zm35.3 0a1 1 0 1 0 0-2 1 1 0 0 0 0 2Zm-106.1 35a1 1 0 1 0 0-2 1 1 0 0 0 0 2Zm35.4 0a1 1 0 1 0 0-2 1 1 0 0 0 0 2Zm35.4 0a1 1 0 1 0 0-2 1 1 0 0 0 0 2Zm35.3 0a1 1 0 1 0 0-2 1 1 0 0 0 0 2Zm-106.1 35a1 1 0 1 0 0-2 1 1 0 0 0 0 2Zm35.4 0a1 1 0 1 0 0-2 1 1 0 0 0 0 2Zm35.4 0a1 1 0 1 0 0-2 1 1 0 0 0 0 2Zm35.3 0a1 1 0 1 0 0-2 1 1 0 0 0 0 2Zm-106.1 35a1 1 0 1 0 0-2 1 1 0 0 0 0 2Zm35.4 0a1 1 0 1 0 0-2 1 1 0 0 0 0 2Zm35.4 0a1 1 0 1 0 0-2 1 1 0 0 0 0 2Zm35.3 0a1 1 0 1 0 0-2 1 1 0 0 0 0 2Z" fill="#FFA492" />
</svg>
